<?xml version="1.0" standalone="no"?>
<!DOCTYPE svg PUBLIC "-//W3C//DTD SVG 20010904//EN"
 "http://www.w3.org/TR/2001/REC-SVG-20010904/DTD/svg10.dtd">
<svg version="1.0" xmlns="http://www.w3.org/2000/svg"
 width="400.000000pt" height="400.000000pt" viewBox="0 0 400.000000 400.000000"
 preserveAspectRatio="xMidYMid meet">
<metadata>
Created by potrace 1.11, written by Peter Selinger 2001-2013
</metadata>
<g transform="translate(0.000000,400.000000) scale(0.100000,-0.100000)"
fill="#000000" stroke="none">
<path d="M0 3259 l1 -742 29 -29 c32 -32 39 -51 15 -42 -8 4 -15 9 -15 13 0 4
-7 16 -15 27 -13 17 -14 15 -13 -30 1 -41 3 -46 14 -32 11 16 13 16 22 0 5
-10 19 -18 30 -19 17 -1 19 2 11 28 -5 16 -11 32 -14 35 -3 3 7 12 22 19 l28
13 -37 -4 c-31 -4 -38 -1 -43 15 -9 28 -1 33 19 13 12 -12 20 -14 28 -6 12 12
-28 70 -49 71 -15 1 -28 21 -14 21 6 0 20 -9 31 -20 12 -12 22 -15 26 -9 7 12
7 12 -21 27 -17 10 -17 11 -3 12 12 0 15 5 11 16 -5 14 -3 15 14 6 23 -13 33
-7 33 19 0 9 -10 19 -23 23 -18 5 -19 8 -7 15 8 5 17 8 20 6 4 -2 7 2 7 10 0
8 -3 14 -6 13 -25 -2 -33 4 -14 12 15 6 20 15 16 29 -3 12 -11 21 -19 21 -23
0 -25 19 -4 40 17 17 19 24 9 36 -6 8 -8 14 -4 14 4 0 2 7 -5 15 -10 12 -10
15 0 15 9 0 9 4 -1 17 -12 14 -12 16 0 9 11 -7 12 0 7 35 -9 67 -9 71 -7 119
2 61 19 33 20 -34 2 -87 6 -101 29 -104 13 -2 19 -8 16 -14 -4 -6 0 -14 7 -19
21 -13 35 -11 21 3 -16 16 -15 28 3 28 8 0 17 -11 21 -25 3 -14 10 -25 15 -25
5 0 6 7 3 15 -4 8 -1 21 5 29 9 11 4 14 -24 19 -40 7 -65 27 -64 54 0 15 2 15
11 -4 16 -32 34 -35 81 -13 23 10 35 19 26 20 -8 0 -19 -4 -25 -9 -16 -15 -58
-25 -49 -11 4 6 -1 17 -10 24 -16 12 -15 13 12 19 17 3 30 12 30 20 0 9 -6 13
-14 10 -19 -7 -16 8 7 35 11 13 24 21 30 17 6 -3 14 4 19 17 9 25 5 42 -9 33
-10 -6 -35 34 -26 42 3 3 17 -5 31 -19 18 -19 36 -25 65 -25 22 0 40 4 40 8 0
5 -13 9 -29 9 -16 0 -31 6 -34 14 -4 11 -1 13 10 9 13 -5 13 -2 -3 22 -16 24
-19 25 -29 11 -7 -9 -18 -16 -25 -16 -9 0 -5 8 9 21 23 21 23 21 49 2 15 -11
35 -22 45 -26 27 -10 20 8 -8 21 -14 6 -25 16 -25 22 0 15 11 12 25 -7 9 -13
14 -13 20 -3 5 9 4 11 -3 6 -7 -4 -12 -1 -12 8 0 19 31 21 47 5 9 -9 10 -7 6
10 -4 15 -13 21 -32 21 -15 0 -32 5 -39 12 -9 9 -12 9 -12 0 0 -7 -4 -12 -9
-12 -10 0 -9 46 2 56 3 3 14 1 24 -5 11 -6 13 -11 5 -11 -10 0 -10 -4 2 -16
18 -18 53 -11 53 11 0 8 -4 12 -9 9 -4 -3 -11 2 -14 10 -3 9 -10 14 -14 11 -4
-3 -10 4 -13 15 -7 26 1 25 30 -2 l23 -21 0 21 c0 12 -4 22 -9 22 -18 0 -18
26 0 27 13 1 19 -5 19 -18 0 -10 5 -19 10 -19 6 0 10 5 10 10 0 6 7 10 15 10
9 0 18 6 21 14 3 7 16 14 30 14 24 0 42 8 33 16 -2 2 -15 7 -29 10 -19 6 -21
5 -10 -3 17 -12 1 -15 -24 -5 -31 12 -16 24 29 24 31 0 45 4 45 13 0 18 76 21
87 4 4 -6 8 -39 9 -73 0 -33 3 -65 7 -70 5 -10 26 -163 26 -194 -1 -49 13
-155 21 -169 7 -11 9 27 5 119 -5 132 -7 156 -21 330 -4 47 -6 90 -4 95 3 11
3 9 -4 93 -2 35 0 62 5 62 9 0 13 -15 10 -34 -1 -5 3 -33 9 -62 6 -29 11 -71
12 -94 0 -22 4 -43 9 -46 5 -3 7 -10 4 -15 -4 -5 -2 -9 3 -9 5 0 8 39 6 88 -7
181 -13 272 -19 282 -3 6 -2 10 3 10 5 0 8 10 6 23 -1 12 -5 43 -9 70 -3 26
-2 47 3 47 16 0 21 -13 12 -31 -7 -11 -7 -20 0 -24 5 -3 8 -26 6 -50 -3 -26 0
-45 6 -45 6 0 8 -7 5 -14 -4 -9 2 -17 14 -21 20 -7 20 -7 2 -22 -13 -10 -14
-16 -6 -19 9 -4 10 -11 4 -22 -5 -9 -7 -24 -6 -34 4 -23 24 -56 25 -40 0 7 4
11 9 7 5 -3 12 -1 15 4 3 5 -2 12 -12 16 -16 6 -16 7 1 20 10 7 14 16 9 19 -7
4 -10 146 -3 178 0 4 12 3 26 -2 16 -6 25 -6 25 0 0 6 -5 10 -11 10 -5 0 -7 5
-4 10 9 15 25 2 25 -21 0 -10 7 -19 15 -19 8 0 15 5 15 10 0 6 -6 10 -12 10
-10 0 -10 2 0 8 9 6 7 14 -8 30 -12 12 -26 22 -33 22 -7 0 -6 4 3 10 11 8 21
3 42 -22 15 -17 24 -36 21 -42 -4 -6 1 -5 10 3 18 15 22 5 7 -19 -6 -9 -5 -17
2 -21 16 -10 30 -119 16 -119 -5 0 -3 -9 5 -21 8 -11 13 -29 10 -39 -3 -11 -2
-28 2 -37 9 -22 13 -50 18 -126 2 -36 9 -62 18 -68 11 -7 12 -11 1 -18 -9 -6
-11 -19 -7 -45 9 -47 22 -47 17 2 -3 33 -2 35 11 19 13 -16 15 -16 21 -1 3 9
4 20 0 25 -3 5 -1 9 4 9 5 0 9 13 10 29 0 17 6 39 12 51 6 11 8 26 4 32 -4 7
-3 8 4 4 7 -4 12 -1 12 8 0 9 6 16 14 16 15 0 19 -10 31 -67 4 -21 13 -33 22
-33 9 0 14 -3 10 -6 -3 -4 1 -21 10 -38 9 -17 29 -67 43 -111 15 -44 31 -80
36 -81 21 -2 60 -23 77 -42 23 -25 43 -105 28 -110 -13 -4 -15 -32 -3 -32 13
0 32 -48 32 -80 0 -23 5 -30 20 -30 10 0 24 -8 29 -18 7 -13 22 -18 55 -19 25
-1 46 3 46 8 0 5 -5 9 -12 9 -6 0 -9 3 -5 6 3 3 15 3 27 -1 17 -5 19 -10 9
-21 -9 -11 -8 -14 4 -14 8 0 17 7 21 15 8 22 26 18 26 -5 0 -11 5 -20 10 -20
6 0 10 -7 10 -15 0 -7 7 -18 16 -23 9 -5 16 -12 16 -15 0 -18 11 -47 19 -47 5
0 6 7 3 15 -4 8 -1 15 6 15 6 0 14 -9 17 -20 3 -11 11 -20 18 -20 7 0 15 -10
19 -22 4 -14 9 -19 13 -13 5 6 18 12 31 12 16 1 22 -4 22 -18 0 -10 5 -19 10
-19 6 0 10 -7 10 -16 0 -8 5 -12 10 -9 8 5 7 11 -1 21 -6 8 -8 18 -4 22 4 4
10 1 12 -5 3 -7 14 -13 24 -13 11 0 17 -5 14 -10 -4 -6 -11 -7 -17 -4 -6 4 -8
3 -5 -3 7 -11 36 -11 55 1 9 5 15 1 19 -13 5 -20 7 -21 23 -6 12 10 26 14 43
10 18 -5 28 -2 35 11 11 19 44 13 38 -8 -1 -7 -1 -10 1 -5 3 4 11 7 19 7 8 0
14 5 14 10 0 6 -7 10 -15 10 -8 0 -15 5 -15 10 0 6 4 10 8 10 12 0 42 -34 42
-48 0 -7 5 -12 10 -12 6 0 10 5 10 11 0 6 7 9 14 6 10 -4 13 -1 9 9 -3 8 -12
13 -19 10 -8 -3 -14 -1 -14 4 0 16 40 11 46 -5 4 -8 11 -15 16 -15 6 0 8 6 5
14 -5 13 19 45 26 35 14 -20 25 -59 16 -59 -6 0 -7 -4 -4 -10 3 -5 11 -10 16
-10 6 0 8 4 5 9 -3 5 1 14 9 21 8 7 15 26 15 42 0 24 2 27 14 16 8 -7 11 -17
7 -23 -4 -5 1 -26 10 -45 10 -19 18 -29 19 -21 0 7 6 11 14 8 10 -4 12 0 9 14
-3 10 -12 19 -19 19 -21 0 -17 17 5 23 12 3 18 0 16 -7 -7 -19 33 -60 48 -48
15 12 61 -3 52 -18 -4 -6 -12 -7 -18 -3 -7 4 -6 0 2 -10 15 -19 2 -24 -16 -6
-7 7 -13 7 -17 1 -9 -15 34 -26 47 -13 17 17 24 13 23 -11 -1 -16 4 -22 16
-20 25 4 31 -16 9 -28 -19 -10 -20 -11 -4 -30 10 -11 27 -20 38 -20 19 1 19 1
-2 13 -16 9 -20 16 -13 27 7 10 13 11 18 5 4 -6 23 -12 42 -13 38 -4 90 -42
57 -42 -10 0 -15 -5 -12 -10 5 -8 11 -7 21 1 11 9 18 8 32 -5 24 -21 28 -20
27 7 0 12 5 23 10 25 6 2 10 -15 10 -40 0 -31 4 -43 15 -44 8 -1 21 -2 28 -3
8 -1 11 -8 7 -20 -4 -13 0 -23 12 -30 10 -6 14 -11 10 -11 -4 0 -3 -9 3 -20 9
-16 8 -20 -5 -20 -14 0 -20 -19 -15 -45 1 -5 -8 -1 -19 9 -22 20 -28 32 -11
21 6 -3 10 -1 10 4 0 6 -9 11 -20 11 -11 0 -20 7 -20 15 0 8 -5 15 -11 15 -8
0 -8 5 1 15 10 12 10 15 -3 15 -9 0 -19 5 -23 12 -5 8 0 9 14 6 12 -4 22 -2
22 3 0 5 -15 9 -34 9 -19 0 -37 6 -39 13 -4 8 -6 7 -6 -3 -1 -17 -41 -25 -41
-9 0 5 5 9 10 9 16 0 12 17 -6 24 -8 3 -12 2 -9 -4 3 -6 1 -10 -5 -10 -6 0 -9
-4 -6 -9 3 -5 -10 -9 -30 -9 -33 0 -35 2 -29 25 5 23 5 24 -10 9 -11 -11 -25
-14 -43 -10 -26 7 -27 6 -9 -13 20 -22 22 -33 6 -33 -11 0 -46 31 -41 37 11
14 -2 12 -19 -3 -21 -19 -21 -19 -43 9 -12 15 -27 27 -34 27 -7 0 -12 4 -12 8
0 4 -9 8 -19 8 -11 0 -19 -4 -18 -9 1 -5 -53 -11 -120 -13 -81 -2 -123 1 -123
8 0 6 -9 8 -20 5 -11 -3 -20 -2 -20 3 0 4 -26 8 -57 8 -87 1 -141 7 -149 15
-12 12 -24 8 -24 -7 0 -11 -12 -14 -45 -13 -25 1 -45 6 -45 12 0 25 -33 -27
-34 -54 -1 -34 -5 -37 -26 -18 -8 6 -6 2 4 -11 24 -28 17 -35 -33 -36 -22 0
-37 -4 -35 -8 3 -5 10 -5 16 -2 6 4 9 1 6 -7 -3 -8 -15 -13 -26 -11 -36 5 -16
-21 31 -42 23 -10 63 -29 89 -42 27 -13 54 -24 61 -24 7 0 28 -9 48 -19 20
-11 88 -36 150 -57 63 -20 141 -47 174 -59 33 -13 101 -38 150 -57 64 -24 93
-40 100 -56 5 -12 15 -22 22 -22 7 0 17 -9 23 -20 12 -22 1 -27 -17 -9 -8 8
-14 5 -23 -11 -11 -20 -17 -22 -61 -17 -29 4 -49 2 -49 -4 0 -16 45 -28 94
-25 26 1 49 -1 52 -5 2 -4 16 -5 31 -3 20 4 32 -1 45 -18 15 -20 19 -21 28 -8
13 19 13 30 0 30 -5 0 -10 4 -10 9 0 5 9 7 20 4 11 -3 17 -9 14 -14 -3 -5 2
-9 10 -9 12 0 16 10 16 34 0 38 15 58 17 24 2 -26 27 -44 31 -23 2 8 8 15 13
15 6 0 7 -5 3 -12 -4 -7 -3 -8 4 -4 7 4 12 12 12 18 0 18 49 58 64 52 8 -3 19
3 26 15 11 22 40 29 40 9 0 -6 3 -8 6 -5 4 4 1 13 -6 22 -15 18 -14 19 25 32
17 6 29 16 28 22 -2 6 4 11 13 11 8 0 13 -4 9 -9 -3 -5 -1 -12 5 -16 5 -3 10
0 10 8 0 10 7 13 20 10 22 -6 30 22 8 29 -6 2 -8 10 -4 17 11 16 36 -17 29
-39 -4 -13 -4 -13 6 0 6 8 8 23 5 32 -4 13 -1 16 10 12 20 -8 29 -34 11 -34
-8 0 -15 -4 -15 -10 0 -5 5 -10 10 -10 6 0 19 -9 30 -20 15 -15 16 -20 6 -20
-8 0 -18 5 -21 10 -3 5 -20 10 -37 10 -26 0 -29 -2 -18 -15 11 -13 15 -13 22
-3 6 10 10 10 17 -2 7 -10 6 -17 -2 -22 -9 -6 -9 -8 0 -8 6 0 14 -14 18 -30 4
-16 11 -30 17 -30 6 0 9 -3 5 -6 -3 -3 -15 -3 -27 1 -15 5 -19 12 -15 26 7 22
-5 25 -24 7 -10 -11 -15 -10 -24 2 -16 20 -37 23 -37 6 0 -13 28 -29 52 -31 4
0 13 -6 20 -14 11 -11 9 -13 -10 -8 -14 3 -20 1 -15 -6 4 -6 0 -8 -8 -6 -8 3
-24 -5 -37 -17 -23 -22 -23 -23 -5 -41 17 -17 18 -21 4 -33 -13 -12 -14 -12
-9 2 4 10 -3 25 -19 39 l-26 24 7 -36 c5 -30 3 -38 -11 -44 -10 -5 -21 -7 -25
-7 -12 3 -10 -12 3 -25 8 -8 8 -13 -1 -18 -7 -4 -14 1 -17 14 -3 12 -10 21
-15 21 -6 0 -8 -7 -5 -15 9 -21 -5 -26 -41 -15 -28 8 -31 6 -29 -12 2 -11 10
-24 18 -29 8 -5 10 -9 4 -9 -5 -1 0 -5 13 -10 12 -5 22 -14 22 -20 0 -7 -7 -7
-21 1 -17 8 -23 8 -29 -1 -4 -7 -13 -9 -19 -6 -6 4 -26 9 -43 11 -28 4 -29 3
-13 -9 18 -13 18 -14 -2 -20 -28 -9 -83 12 -63 24 23 15 6 20 -20 7 -20 -10
-25 -20 -24 -50 1 -20 -3 -34 -8 -31 -4 3 -8 0 -8 -5 0 -6 5 -11 10 -11 6 0
10 -7 10 -15 0 -8 -7 -15 -16 -15 -14 0 -14 -3 -4 -15 19 -23 3 -18 -21 8 -19
19 -20 19 -11 2 11 -22 53 -63 65 -64 4 -1 12 -1 18 -1 5 0 7 -4 4 -10 -4 -7
3 -7 19 0 14 5 26 8 27 7 0 -1 1 -19 3 -40 3 -40 1 -41 -46 -22 -21 8 -26 -20
-5 -29 6 -3 -8 -4 -33 -1 -24 3 -46 8 -48 10 -9 9 11 25 31 25 16 0 18 -3 8
-9 -8 -5 -9 -11 -3 -15 5 -3 12 1 16 9 3 8 1 17 -5 21 -6 3 -8 12 -5 20 3 8
-1 14 -9 14 -8 0 -15 -8 -15 -17 0 -14 -3 -13 -23 5 -28 26 -40 27 -58 5 -11
-13 -11 -15 -1 -9 14 8 52 -23 52 -43 0 -12 -28 -22 -35 -11 -3 4 1 10 7 13 7
2 10 8 6 12 -4 4 -14 2 -22 -4 -8 -7 -20 -10 -26 -6 -5 3 -10 1 -10 -4 0 -6 7
-11 15 -11 13 0 13 -3 3 -20 -7 -11 -17 -20 -21 -20 -5 0 -11 9 -14 20 -6 24
-19 26 -27 5 -3 -9 0 -15 9 -15 22 0 18 -13 -10 -40 -14 -13 -25 -19 -25 -14
0 5 -9 15 -21 22 -19 12 -19 11 -10 -7 6 -11 16 -23 21 -26 6 -3 10 -11 10
-16 0 -6 -5 -7 -12 -3 -7 5 -8 3 -3 -6 8 -13 -13 -32 -27 -24 -4 3 -8 18 -8
35 0 16 -4 29 -9 29 -17 0 -23 -20 -12 -34 9 -11 5 -16 -19 -24 -16 -6 -30
-16 -30 -22 0 -6 5 -8 12 -4 7 4 8 3 4 -4 -7 -12 -22 -7 -56 19 -13 9 -12 10
3 5 21 -7 23 12 2 20 -13 5 -13 9 -3 23 10 13 10 14 -2 4 -24 -22 -43 -16 -36
12 4 14 2 25 -4 25 -5 0 -9 -3 -9 -7 3 -20 -2 -30 -16 -30 -15 0 -21 23 -7 29
4 2 0 11 -10 21 -10 9 -18 12 -18 6 0 -5 -4 -7 -10 -4 -18 11 -11 -17 8 -31
15 -12 15 -12 -5 -7 -13 3 -23 9 -23 14 0 5 -5 9 -10 9 -6 0 -9 -5 -8 -12 2
-7 -16 -13 -51 -15 -44 -2 -52 0 -47 13 3 8 2 13 -2 10 -14 -8 -96 16 -109 32
-7 9 -13 11 -13 5 0 -19 -32 -24 -50 -8 -9 8 -20 12 -23 8 -4 -3 -7 -1 -7 5 0
7 7 12 15 12 8 0 15 6 15 14 0 18 -51 72 -66 68 -7 -1 -15 2 -19 8 -3 5 3 10
14 10 12 0 21 5 21 10 0 6 -4 10 -10 10 -5 0 -10 5 -10 11 0 6 7 8 17 5 23 -9
10 4 -19 18 -12 6 -23 18 -25 26 -3 10 1 8 11 -4 9 -11 17 -18 18 -15 2 2 8
13 15 24 6 11 15 19 20 18 5 -1 9 10 8 25 0 15 4 30 9 33 5 4 6 15 2 24 -4 12
-14 16 -32 12 l-25 -4 23 26 c13 14 28 29 33 33 6 4 6 8 1 8 -5 0 -3 6 3 14 9
10 9 16 1 21 -8 5 -6 11 6 19 9 7 14 18 10 24 -4 7 -1 12 8 12 14 0 14 3 4 20
-7 11 -16 20 -21 20 -4 0 -5 -5 -2 -10 3 -6 1 -10 -4 -10 -17 0 -13 18 6 28
14 8 13 11 -7 17 -14 4 -37 21 -53 36 -29 29 -67 39 -67 17 0 -6 -6 -4 -13 7
-10 12 -16 14 -21 7 -4 -7 -5 -16 -2 -20 5 -9 3 -10 -50 -13 -34 -2 -42 -28
-14 -41 10 -4 6 -7 -11 -7 -15 -1 -33 -9 -40 -18 -12 -15 -12 -16 3 -10 10 3
20 2 23 -3 4 -6 14 -10 23 -10 15 1 15 2 -1 15 -17 12 -15 13 25 13 23 -1 48
0 53 2 6 1 22 2 36 1 22 -1 27 -6 25 -26 0 -16 -6 -23 -13 -20 -16 5 -17 -11
-3 -20 7 -4 7 -12 2 -18 -12 -17 -9 -36 8 -48 11 -7 8 -8 -12 -3 -26 6 -27 5
-18 -25 8 -30 8 -31 -31 -37 -22 -4 -41 -10 -44 -14 -4 -6 -80 -4 -120 4 -11
3 -23 5 -27 5 -3 1 -8 7 -11 14 -2 6 -3 4 -2 -5 2 -10 -1 -18 -7 -18 -6 0 -8
-9 -5 -19 6 -23 -27 -42 -65 -37 -31 4 -45 -26 -22 -49 8 -8 14 -20 13 -27 -3
-27 2 -36 22 -41 14 -4 20 -11 16 -21 -3 -8 -2 -18 3 -21 10 -6 14 7 11 37 -2
17 -1 17 28 0 17 -9 33 -24 36 -32 5 -15 41 -20 61 -7 6 3 26 -3 44 -15 19
-11 36 -16 38 -10 4 12 42 4 42 -9 0 -5 -7 -9 -16 -9 -8 0 -12 -5 -9 -10 4 -6
11 -7 17 -4 6 4 25 8 43 10 26 2 31 -1 31 -19 -1 -32 -19 -39 -59 -22 -19 8
-37 11 -40 8 -4 -3 -9 1 -12 9 -5 12 -17 14 -49 11 -28 -4 -53 0 -74 11 -18 9
-32 14 -32 10 0 -4 -6 -1 -14 5 -8 7 -30 13 -49 14 -26 2 -51 17 -102 60 -73
62 -96 69 -47 13 16 -19 38 -48 48 -65 10 -17 21 -31 24 -31 3 0 21 -14 40
-31 19 -17 30 -28 24 -25 -6 3 -19 -3 -29 -14 -10 -12 -13 -20 -7 -20 7 0 12
-4 12 -9 0 -5 -15 -5 -35 -1 -27 6 -35 5 -35 -6 0 -8 7 -17 15 -20 8 -4 15
-13 15 -20 0 -17 47 -37 62 -28 7 4 8 2 4 -4 -5 -8 1 -12 15 -12 12 0 34 -14
50 -32 15 -18 31 -29 35 -25 4 4 13 -6 20 -23 10 -22 17 -28 30 -23 12 4 15 3
10 -5 -4 -7 4 -23 18 -37 21 -21 22 -25 8 -26 -9 -1 -21 -1 -25 0 -5 1 -6 -3
-2 -9 3 -5 14 -10 24 -10 20 0 41 -19 41 -38 0 -10 -3 -10 -16 2 -20 21 -21
20 -19 -6 1 -12 11 -25 25 -30 12 -5 21 -11 18 -13 -3 -3 -20 1 -39 9 -33 14
-35 14 -34 -8 1 -12 5 -27 9 -34 4 -7 1 -12 -8 -12 -10 0 -16 9 -16 25 0 28
-21 30 -32 3 -6 -14 -14 -16 -38 -12 -19 4 -30 2 -30 -5 0 -16 -25 -14 -40 4
-7 8 -21 15 -31 15 -11 0 -19 5 -19 10 0 6 -9 10 -19 10 -11 0 -22 4 -25 9 -3
5 -15 11 -25 14 -19 4 -19 3 -6 -17 8 -12 26 -32 40 -44 14 -13 23 -27 20 -32
-3 -6 0 -10 7 -11 7 -1 22 -2 33 -2 11 -1 21 -6 22 -12 1 -5 -5 -9 -13 -7 -8
2 -14 -2 -14 -8 0 -5 11 -10 25 -10 40 0 29 -19 -15 -26 -23 -4 -40 -12 -40
-20 0 -7 -8 -17 -17 -23 -23 -12 -12 -23 27 -26 17 -1 34 -5 38 -9 4 -4 1 -6
-7 -4 -7 2 -16 -3 -18 -9 -3 -7 2 -13 10 -13 19 0 34 -18 42 -53 7 -26 6 -28
-21 -25 -20 2 -28 -1 -26 -10 2 -11 -7 -12 -40 -7 -24 4 -45 10 -48 14 -7 9
-40 13 -40 5 0 -4 8 -13 18 -20 15 -12 14 -13 -11 -14 -16 0 -26 -4 -22 -10 3
-6 -1 -10 -11 -10 -13 0 -14 3 -5 13 6 8 8 17 4 21 -4 4 0 4 9 1 13 -5 15 -2
12 13 -3 10 -17 23 -31 28 l-25 9 22 23 c14 15 28 21 40 17 39 -12 28 14 -15
34 -48 22 -75 27 -75 12 0 -5 -6 -11 -14 -14 -22 -9 -56 4 -56 20 0 9 6 13 15
9 8 -3 15 -1 15 4 0 5 -9 12 -20 15 -29 9 -13 28 17 20 17 -4 23 -2 18 6 -4 6
-19 9 -33 6 -16 -3 -32 2 -46 15 -12 10 -29 17 -38 15 -9 -3 -26 2 -37 10 -18
12 -24 12 -43 -1 -23 -16 -17 -22 29 -29 31 -4 38 -14 24 -31 -14 -17 -8 -22
41 -31 21 -4 36 -11 33 -15 -7 -11 19 -30 51 -39 18 -4 28 -15 31 -30 3 -19 0
-22 -14 -16 -10 4 -31 10 -48 13 -16 2 -36 9 -42 14 -9 7 -17 7 -26 0 -8 -7
-18 -7 -27 -2 -12 8 -11 10 5 10 16 0 17 2 5 9 -8 6 -17 8 -21 5 -4 -2 -11 1
-15 7 -5 9 0 10 14 7 13 -4 22 -1 22 5 0 9 2 9 8 1 10 -16 52 -28 52 -15 0 6
-6 11 -13 11 -7 0 -19 6 -25 12 -15 15 -91 17 -89 3 1 -5 7 -13 12 -17 6 -4 0
-8 -11 -8 -12 0 -25 7 -28 16 -5 12 -10 13 -19 5 -10 -8 -23 -5 -50 9 -20 11
-37 16 -37 10 0 -5 7 -10 15 -10 8 0 15 -7 15 -15 0 -9 9 -15 23 -15 12 0 28
-9 35 -20 14 -23 0 -27 -18 -5 -7 8 -25 15 -41 15 -20 0 -29 5 -29 16 0 13 -9
15 -45 12 -31 -2 -45 1 -45 9 0 7 5 13 11 13 9 0 8 4 0 14 -9 10 -6 13 16 14
16 1 42 2 58 4 20 2 29 -1 27 -9 -1 -7 7 -13 17 -13 11 0 21 -5 23 -11 3 -9
14 -8 42 2 33 12 35 15 20 26 -9 7 -21 10 -26 7 -13 -8 -88 28 -88 43 0 7 -11
13 -27 13 -19 0 -24 3 -17 10 7 7 28 8 54 4 38 -6 41 -9 26 -20 -11 -8 -13
-14 -7 -19 6 -3 11 -2 11 3 0 6 11 13 25 16 30 8 24 23 -13 38 -20 7 -23 12
-12 16 31 10 41 24 29 38 -9 11 -8 14 4 14 9 0 19 5 23 12 4 6 3 8 -3 5 -6 -4
-26 4 -45 17 -36 24 -160 44 -139 23 6 -6 33 -10 62 -9 40 1 50 -2 45 -14 -3
-7 0 -14 7 -15 7 -1 2 -4 -11 -7 -29 -9 -29 -27 1 -28 41 -2 42 -4 17 -24 -30
-24 -40 -25 -40 -5 0 8 -6 15 -12 14 -18 -1 -55 -17 -43 -19 6 -1 1 -5 -10
-10 -17 -7 -17 -9 -2 -9 9 -1 17 -6 17 -12 0 -15 -117 -6 -133 11 -10 10 -3
11 36 7 35 -3 46 -2 38 6 -18 18 -13 27 14 27 14 0 25 5 25 10 0 6 -5 10 -12
10 -6 0 -9 3 -5 6 3 4 0 21 -7 38 -7 17 -11 37 -9 44 3 6 0 12 -6 12 -21 0
-11 19 12 22 12 2 22 8 22 13 0 15 -65 18 -92 4 -13 -7 -26 -9 -30 -6 -10 11
30 37 49 33 30 -7 20 13 -9 20 -15 4 -35 16 -43 27 -14 17 -17 18 -29 3 -7 -9
-10 -16 -6 -16 4 0 2 -7 -5 -15 -7 -8 -21 -15 -30 -15 -10 0 -20 -5 -22 -10
-3 -11 -93 -22 -180 -24 -27 0 -48 -4 -48 -8 0 -15 -33 -8 -45 9 -8 11 -18 14
-31 8 -10 -4 -22 -8 -25 -7 -3 0 -7 -4 -9 -11 -1 -7 -4 -247 -7 -534 l-4 -522
2001 -1 2000 0 0 2000 0 2000 -1577 -1 c-1069 0 -1569 -4 -1550 -11 15 -5 27
-14 27 -19 0 -5 -11 -4 -25 1 -14 5 -30 8 -37 6 -7 -1 -10 -1 -5 1 23 14 -2
23 -63 23 -61 0 -69 -2 -64 -17 5 -17 5 -17 -9 0 -13 16 -43 17 -356 17 l-341
0 0 -741z m601 393 c-11 -4 -11 -6 0 -13 11 -7 9 -10 -8 -15 -13 -4 -20 -10
-18 -15 3 -4 13 -5 23 -2 9 3 14 3 10 -2 -4 -4 -3 -14 4 -22 9 -11 6 -12 -17
-3 -26 10 -27 9 -23 -14 6 -27 -11 -39 -33 -25 -12 8 -11 11 3 23 14 10 15 15
5 25 -9 10 -8 11 7 5 15 -6 18 -4 13 9 -4 10 0 20 11 26 9 6 13 11 8 11 -5 0
-3 7 4 15 7 9 16 13 19 9 3 -4 0 -9 -8 -12z m-166 -42 c3 -5 2 -10 -4 -10 -5
0 -13 5 -16 10 -3 6 -2 10 4 10 5 0 13 -4 16 -10z m75 -4 c0 -3 -4 -8 -10 -11
-5 -3 -10 -1 -10 4 0 6 5 11 10 11 6 0 10 -2 10 -4z m5 -69 c1 -34 0 -36 -31
-34 -18 2 -37 6 -41 11 -4 4 -1 7 7 6 8 -1 23 -2 33 -1 16 1 16 3 2 25 -13 19
-13 25 -3 29 24 10 33 0 33 -36z m95 23 c8 -5 11 -12 7 -16 -4 -4 -15 0 -24 9
-18 18 -8 23 17 7z m-195 -80 c-3 -5 -10 -10 -16 -10 -5 0 -9 5 -9 10 0 6 7
10 16 10 8 0 12 -4 9 -10z m-40 -18 c-3 -3 -11 0 -18 7 -9 10 -8 11 6 5 10 -3
15 -9 12 -12z m-45 -12 c0 -5 -7 -7 -15 -4 -8 4 -15 8 -15 10 0 2 7 4 15 4 8
0 15 -4 15 -10z m-30 -20 c0 -5 -4 -10 -9 -10 -6 0 -13 5 -16 10 -3 6 1 10 9
10 9 0 16 -4 16 -10z m-31 -141 c-16 -10 -23 -4 -14 10 3 6 11 8 17 5 6 -4 5
-9 -3 -15z m48 5 c-3 -3 -12 -4 -19 -1 -8 3 -5 6 6 6 11 1 17 -2 13 -5z m-177
-205 c0 -14 -17 -10 -23 5 -4 10 -1 13 9 9 7 -3 14 -9 14 -14z m15 -29 c3 -5
1 -10 -4 -10 -6 0 -11 5 -11 10 0 6 2 10 4 10 3 0 8 -4 11 -10z m1430 -110 c3
-5 1 -10 -4 -10 -6 0 -11 5 -11 10 0 6 2 10 4 10 3 0 8 -4 11 -10z m895 -169
c0 -6 -4 -13 -10 -16 -5 -3 -10 1 -10 9 0 9 5 16 10 16 6 0 10 -4 10 -9z
m-157 -26 c-3 -9 -8 -14 -10 -11 -3 3 -2 9 2 15 9 16 15 13 8 -4z m-2283 -16
c0 -6 -4 -7 -10 -4 -5 3 -10 11 -10 16 0 6 5 7 10 4 6 -3 10 -11 10 -16z
m2390 1 c13 -8 13 -10 -2 -10 -9 0 -20 5 -23 10 -8 13 5 13 25 0z m-57 -15 c4
-8 2 -17 -3 -20 -6 -4 -10 -4 -10 -1 0 2 -3 11 -6 20 -3 9 -2 16 4 16 5 0 12
-7 15 -15z m118 -23 c-7 -2 -18 1 -23 6 -8 8 -4 9 13 5 13 -4 18 -8 10 -11z
m-2423 -25 c8 -10 7 -13 -7 -14 -10 -1 -18 5 -18 13 0 17 11 18 25 1z m2382 3
c0 -5 -4 -10 -10 -10 -5 0 -10 5 -10 10 0 6 5 10 10 10 6 0 10 -4 10 -10z
m242 -78 c-7 -2 -10 -8 -7 -12 3 -5 1 -11 -5 -15 -11 -7 -13 5 -4 29 3 9 11
13 17 9 8 -5 7 -8 -1 -11z m-42 -12 c0 -5 -7 -7 -15 -4 -8 4 -12 10 -9 15 6
11 24 2 24 -11z m-41 -7 c7 -15 5 -18 -17 -19 -15 -1 -22 1 -15 3 7 2 9 11 6
19 -8 20 14 17 26 -3z m59 -41 c2 -7 -5 -12 -17 -12 -14 0 -19 5 -14 15 6 17
25 15 31 -3z m-333 -112 c3 -5 1 -10 -4 -10 -6 0 -11 5 -11 10 0 6 2 10 4 10
3 0 8 -4 11 -10z m-665 -10 c0 -5 -5 -10 -11 -10 -5 0 -7 5 -4 10 3 6 8 10 11
10 2 0 4 -4 4 -10z m380 -80 c0 -5 -2 -10 -4 -10 -3 0 -8 5 -11 10 -3 6 -1 10
4 10 6 0 11 -4 11 -10z m96 -13 c6 -19 31 -17 27 2 -2 6 1 11 5 11 9 0 35 -50
30 -55 -13 -12 -49 -6 -75 13 -17 12 -36 22 -42 22 -6 0 -8 6 -5 14 8 20 53
15 60 -7z m264 -6 c0 -5 -33 -30 -40 -31 -3 0 -6 8 -6 19 0 13 7 18 23 17 13
0 23 -3 23 -5z m295 -9 c-10 -11 -53 -8 -48 4 2 6 15 9 29 6 14 -2 22 -7 19
-10z m-450 -2 c3 -5 1 -10 -4 -10 -6 0 -11 -4 -11 -8 0 -5 7 -9 15 -9 8 0 15
3 15 7 0 4 18 7 39 8 26 1 41 -3 45 -13 4 -11 -1 -15 -18 -15 -13 0 -43 -3
-67 -6 -44 -6 -44 -6 -45 25 -1 30 17 43 31 21z m-568 -16 c-3 -3 -12 -4 -19
-1 -8 3 -5 6 6 6 11 1 17 -2 13 -5z m23 -34 c0 -5 -4 -10 -10 -10 -5 0 -10 5
-10 10 0 6 5 10 10 10 6 0 10 -4 10 -10z m415 -40 c3 -5 2 -10 -4 -10 -5 0
-13 5 -16 10 -3 6 -2 10 4 10 5 0 13 -4 16 -10z m443 -135 c-12 -27 -23 -31
-33 -14 -4 6 1 17 11 24 28 21 35 18 22 -10z m1162 -25 c0 -5 -5 -10 -11 -10
-6 0 -9 -6 -6 -14 3 -8 0 -17 -7 -19 -15 -6 -18 23 -3 41 11 14 27 16 27 2z
m-1228 -7 c-12 -2 -20 -9 -17 -14 4 -5 -1 -9 -9 -9 -9 0 -19 0 -23 -1 -4 0 -9
5 -12 12 -2 8 2 10 12 6 9 -3 19 -2 22 3 4 6 16 9 28 9 22 -2 22 -2 -1 -6z
m-102 -18 c11 -13 10 -14 -4 -9 -9 3 -16 10 -16 15 0 13 6 11 20 -6z m1147
-17 c-3 -8 -6 -5 -6 6 -1 11 2 17 5 13 3 -3 4 -12 1 -19z m51 -6 c2 -7 -2 -10
-12 -6 -9 3 -16 11 -16 16 0 13 23 5 28 -10z m-1210 2 c28 -8 28 -20 0 -27
-22 -6 -48 7 -48 24 0 10 16 11 48 3z m612 -4 c0 -5 -4 -10 -10 -10 -5 0 -10
5 -10 10 0 6 5 10 10 10 6 0 10 -4 10 -10z m790 -11 c-7 -11 -14 -18 -17 -15
-3 3 0 12 7 21 18 21 23 19 10 -6z m-936 -114 c3 -8 1 -15 -4 -15 -6 0 -10 7
-10 15 0 8 2 15 4 15 2 0 6 -7 10 -15z m166 -15 c0 -5 -2 -10 -4 -10 -3 0 -8
5 -11 10 -3 6 -1 10 4 10 6 0 11 -4 11 -10z m-225 -90 c3 -6 -1 -7 -9 -4 -18
7 -21 14 -7 14 6 0 13 -4 16 -10z m-1175 -60 c0 -5 -5 -10 -11 -10 -5 0 -7 5
-4 10 3 6 8 10 11 10 2 0 4 -4 4 -10z m874 -70 c22 0 37 -22 25 -37 -9 -10 -7
-13 6 -13 10 0 15 3 12 7 -12 11 14 33 39 33 26 0 33 -17 10 -26 -8 -3 -16
-18 -20 -35 l-5 -29 -36 20 c-34 19 -64 28 -37 11 7 -4 15 -19 17 -32 1 -13 6
-33 10 -44 6 -17 5 -17 -9 3 -10 12 -21 20 -25 18 -4 -3 -7 14 -6 37 1 23 -2
50 -7 59 -4 9 -5 25 -1 34 4 11 8 13 11 6 2 -7 9 -12 16 -12z m176 -6 c0 -8
-5 -12 -10 -9 -6 4 -8 11 -5 16 9 14 15 11 15 -7z m-20 -24 c12 -16 17 -30 11
-30 -6 0 -11 5 -11 10 0 6 -6 10 -14 10 -7 0 -16 9 -19 20 -8 29 9 24 33 -10z
m942 12 c-4 -11 -1 -13 7 -7 10 6 12 -6 7 -56 -3 -35 -7 -87 -8 -116 -2 -28
-6 -55 -10 -59 -5 -4 -8 -18 -8 -30 0 -13 -4 -25 -9 -29 -5 -3 -8 -16 -5 -29
2 -13 -2 -29 -10 -35 -8 -7 -12 -20 -9 -30 3 -11 -4 -28 -15 -39 -11 -11 -18
-22 -16 -25 2 -2 -3 -21 -13 -43 -9 -21 -17 -43 -18 -49 0 -5 -10 -10 -21 -9
-18 0 -21 -4 -17 -33 4 -26 1 -33 -12 -33 -11 0 -15 -5 -12 -14 3 -8 -1 -20
-9 -26 -8 -7 -14 -19 -14 -26 0 -16 -16 -19 -25 -4 -3 6 -14 10 -23 10 -15 0
-15 -2 -2 -10 13 -8 12 -11 -4 -23 -13 -10 -15 -16 -8 -21 18 -11 15 -39 -4
-32 -12 4 -14 1 -9 -14 8 -25 -17 -52 -39 -44 -17 7 -22 -11 -6 -21 6 -3 10
-11 10 -16 0 -6 -5 -7 -12 -3 -7 4 -8 3 -4 -4 8 -14 -14 -55 -54 -100 -9 -9
-29 -36 -44 -59 -18 -27 -37 -43 -50 -44 -11 0 -15 -3 -8 -6 23 -9 12 -23 -14
-17 -23 6 -25 4 -19 -15 4 -14 2 -21 -7 -21 -7 0 -21 -14 -31 -31 -9 -17 -26
-33 -37 -36 -11 -3 -20 -10 -20 -16 0 -7 -4 -7 -12 1 -18 18 -27 15 -21 -8 4
-14 0 -20 -11 -20 -11 0 -14 -4 -10 -13 6 -8 3 -8 -9 1 -9 8 -26 11 -39 7 -15
-4 -19 -3 -10 3 16 11 12 30 -12 55 -19 20 -19 21 2 30 23 11 29 31 12 42 -5
3 -10 1 -10 -4 0 -6 -4 -11 -10 -11 -18 0 -10 17 13 27 12 5 34 6 50 2 26 -7
38 3 17 16 -5 3 -7 12 -3 20 3 9 0 21 -6 29 -12 14 -2 27 31 39 13 5 16 14 13
42 -4 27 -1 35 11 35 11 0 14 5 10 16 -5 13 -1 15 18 10 13 -3 32 -9 42 -13
12 -4 15 -3 10 5 -4 7 -14 12 -22 12 -8 0 -14 5 -14 11 0 7 10 9 25 5 20 -5
23 -3 18 10 -5 14 -3 15 15 5 26 -14 35 -14 27 -1 -3 6 -1 10 5 10 6 0 8 5 4
11 -4 8 -9 7 -15 -2 -7 -12 -11 -11 -25 2 -24 25 -5 53 38 54 28 0 33 3 31 23
-2 18 2 22 28 22 18 0 28 4 24 10 -4 7 3 9 19 6 30 -5 34 9 7 23 -34 19 -31
36 7 38 43 2 60 16 43 37 -6 7 -10 18 -9 22 3 9 -5 14 -22 14 -5 0 -7 -7 -4
-15 8 -21 -13 -19 -25 3 -9 15 -10 14 -11 -7 0 -36 -15 -14 -15 23 -1 18 4 33
10 33 52 -1 76 4 72 16 -2 6 -14 11 -25 10 -15 -2 -20 2 -16 12 4 8 10 12 15
9 5 -3 9 1 9 10 0 8 -6 17 -12 19 -7 3 -1 6 14 6 23 1 26 5 22 26 -3 17 2 31
15 42 15 12 17 20 10 30 -6 7 -9 18 -6 25 4 8 6 7 6 -4 1 -24 18 -23 32 3 7
15 18 20 34 17 19 -4 25 1 31 21 4 14 7 29 6 34 -1 4 12 10 29 14 21 4 27 9
20 16 -17 17 -13 30 9 24 17 -4 18 -2 10 14 -8 14 -7 17 2 14 7 -3 19 4 26 15
11 18 10 20 -9 20 -13 0 -18 -4 -13 -12 6 -10 5 -10 -8 -1 -8 7 -18 10 -22 6
-4 -4 -11 -1 -16 7 -15 24 -12 33 10 27 13 -3 20 0 20 10 0 9 6 12 18 9 14 -5
18 -1 17 12 0 9 -4 23 -9 30 -4 7 -2 12 8 12 8 0 16 5 18 11 2 7 12 7 32 -1
16 -6 31 -8 35 -5 7 8 -12 38 -29 43 -7 3 -10 0 -6 -7 4 -6 2 -11 -3 -11 -15
0 -14 16 3 33 19 19 46 18 38 -1z m-882 -2 c0 -5 -2 -10 -4 -10 -3 0 -8 5 -11
10 -3 6 -1 10 4 10 6 0 11 -4 11 -10z m-1365 -10 c-3 -5 -11 -10 -16 -10 -6 0
-7 5 -4 10 3 6 11 10 16 10 6 0 7 -4 4 -10z m-50 -10 c3 -5 1 -10 -4 -10 -6 0
-11 5 -11 10 0 6 2 10 4 10 3 0 8 -4 11 -10z m2235 6 c0 -2 -7 -7 -16 -10 -8
-3 -12 -2 -9 4 6 10 25 14 25 6z m-892 -29 c8 -10 6 -13 -9 -13 -19 0 -24 7
-12 19 8 9 9 9 21 -6z m-1418 -7 c0 -5 -2 -10 -4 -10 -3 0 -8 5 -11 10 -3 6
-1 10 4 10 6 0 11 -4 11 -10z m83 -4 c21 8 22 -3 3 -22 -22 -21 -33 -17 -33
12 0 14 3 21 7 15 3 -7 14 -9 23 -5z m1397 4 c0 -5 -5 -10 -11 -10 -5 0 -7 5
-4 10 3 6 8 10 11 10 2 0 4 -4 4 -10z m-76 -54 c-5 -13 -13 -16 -32 -11 -21 5
-24 4 -13 -8 9 -12 9 -16 -2 -20 -9 -3 -13 5 -12 27 0 26 4 31 23 30 12 0 22
4 22 10 0 7 3 7 10 0 6 -6 8 -18 4 -28z m846 24 c0 -5 -5 -10 -11 -10 -5 0 -7
5 -4 10 3 6 8 10 11 10 2 0 4 -4 4 -10z m-934 -14 c15 -16 18 -26 6 -26 -4 0
-13 9 -20 20 -14 23 -7 26 14 6z m-1166 -17 c0 -4 -7 -6 -15 -3 -8 4 -15 10
-15 15 0 4 7 6 15 3 8 -4 15 -10 15 -15z m206 -12 c4 -4 -5 -7 -19 -7 -15 0
-27 4 -27 10 0 11 35 8 46 -3z m-241 -7 c8 -13 -5 -13 -25 0 -13 8 -13 10 2
10 9 0 20 -4 23 -10z m1395 -20 c0 -5 -2 -10 -4 -10 -3 0 -8 5 -11 10 -3 6 -1
10 4 10 6 0 11 -4 11 -10z m90 -36 c0 -8 -4 -12 -10 -9 -5 3 -10 10 -10 16 0
5 5 9 10 9 6 0 10 -7 10 -16z m630 -10 c0 -8 -4 -12 -10 -9 -5 3 -10 1 -10 -5
0 -6 -5 -8 -10 -5 -8 5 -7 11 1 21 15 19 29 18 29 -2z m-95 -14 c3 -5 1 -10
-4 -10 -6 0 -11 5 -11 10 0 6 2 10 4 10 3 0 8 -4 11 -10z m-755 -24 c0 -3 -4
-8 -10 -11 -5 -3 -10 -1 -10 4 0 6 5 11 10 11 6 0 10 -2 10 -4z m-160 -27 c0
-5 -9 -9 -19 -9 -11 0 -22 4 -25 9 -3 5 6 9 19 9 14 0 25 -4 25 -9z m-64 -22
c1 -7 3 -17 5 -23 2 -7 1 -12 -3 -13 -5 -1 -8 2 -7 5 0 4 -4 10 -10 14 -7 3
-9 14 -5 24 7 18 16 14 20 -7z m-621 -17 c3 -5 1 -10 -4 -10 -6 0 -11 5 -11
10 0 6 2 10 4 10 3 0 8 -4 11 -10z m1627 -2 c-9 -9 -15 -9 -24 0 -9 9 -7 12
12 12 19 0 21 -3 12 -12z m-1042 -14 c0 -2 -7 -4 -15 -4 -8 0 -15 4 -15 10 0
5 7 7 15 4 8 -4 15 -8 15 -10z m-44 -3 c-4 -5 -1 -11 6 -13 6 -2 12 -11 14
-20 1 -11 -3 -15 -12 -11 -18 7 -36 38 -27 47 10 9 25 7 19 -3z m-1001 -11 c3
-5 1 -10 -4 -10 -6 0 -11 5 -11 10 0 6 2 10 4 10 3 0 8 -4 11 -10z m685 -11
c0 -4 -7 -9 -15 -13 -9 -3 -15 0 -15 8 0 7 7 13 15 13 8 0 15 -4 15 -8z m-635
-19 c-6 -18 -3 -20 27 -16 31 3 58 -7 58 -23 0 -4 -9 -7 -20 -7 -11 0 -20 4
-20 9 0 5 -8 6 -18 2 -27 -8 -68 16 -64 38 2 9 12 17 23 17 16 0 19 -5 14 -20z
m708 -4 c3 -8 -6 -10 -28 -8 -22 3 -32 8 -29 17 6 15 51 8 57 -9z m307 4 c0
-5 -7 -7 -15 -4 -8 4 -12 10 -9 15 6 11 24 2 24 -11z m-880 -10 c0 -5 -4 -10
-9 -10 -6 0 -13 5 -16 10 -3 6 1 10 9 10 9 0 16 -4 16 -10z m56 -25 c11 -23
10 -24 -7 -14 -10 5 -19 16 -19 24 0 23 14 18 26 -10z m447 -17 c-11 -4 -13
-7 -4 -7 10 -1 11 -4 2 -14 -6 -8 -7 -18 -3 -23 4 -5 -3 1 -15 14 -24 25 -30
42 -13 42 6 0 9 3 9 8 -3 19 3 20 21 5 19 -16 19 -18 3 -25z m204 16 c-9 -9
-28 6 -21 18 4 6 10 6 17 -1 6 -6 8 -13 4 -17z m-577 1 c0 -12 -19 -12 -23 0
-4 9 -1 12 9 8 7 -3 14 -7 14 -8z m-125 -5 c3 -5 1 -10 -4 -10 -6 0 -11 5 -11
10 0 6 2 10 4 10 3 0 8 -4 11 -10z m580 -10 c3 -6 -1 -7 -9 -4 -18 7 -21 14
-7 14 6 0 13 -4 16 -10z m55 -10 c0 -5 -2 -10 -4 -10 -3 0 -8 5 -11 10 -3 6
-1 10 4 10 6 0 11 -4 11 -10z m-76 -21 c-3 -5 -10 -7 -15 -3 -5 3 -7 10 -3 15
3 5 10 7 15 3 5 -3 7 -10 3 -15z m113 15 c-3 -3 -12 -4 -19 -1 -8 3 -5 6 6 6
11 1 17 -2 13 -5z m1073 2 c0 -11 -19 -15 -25 -6 -3 5 1 10 9 10 9 0 16 -2 16
-4z m-1819 -24 c-7 -2 -18 1 -23 6 -8 8 -4 9 13 5 13 -4 18 -8 10 -11z m519 8
c0 -5 -5 -10 -11 -10 -5 0 -7 5 -4 10 3 6 8 10 11 10 2 0 4 -4 4 -10z m-405
-30 c3 -6 0 -17 -8 -25 -13 -12 -15 -11 -13 10 1 26 10 32 21 15z m615 -5 c7
-9 8 -15 2 -15 -5 0 -12 7 -16 15 -3 8 -4 15 -2 15 2 0 9 -7 16 -15z m-373 -1
c-3 -3 -12 -4 -19 -1 -8 3 -5 6 6 6 11 1 17 -2 13 -5z m173 -14 c0 -5 -5 -10
-11 -10 -5 0 -7 5 -4 10 3 6 8 10 11 10 2 0 4 -4 4 -10z m60 0 c0 -5 -4 -10
-9 -10 -6 0 -13 5 -16 10 -3 6 1 10 9 10 9 0 16 -4 16 -10z m-1560 -26 c0 -8
-5 -12 -10 -9 -6 4 -8 11 -5 16 9 14 15 11 15 -7z m-23 -52 c-10 -2 -17 -7
-17 -12 0 -5 -12 -13 -27 -18 -24 -9 -25 -11 -7 -11 12 -1 24 -8 28 -16 7 -19
-56 -48 -101 -46 -23 1 -33 -3 -33 -13 0 -17 33 -27 51 -15 8 5 26 6 41 4 22
-4 25 -2 21 15 -6 24 9 25 52 5 27 -12 28 -13 7 -14 -13 -1 -21 -5 -17 -10 8
-14 -35 -25 -47 -13 -7 7 -15 6 -25 -4 -8 -8 -19 -12 -24 -9 -5 4 -9 1 -9 -5
0 -6 -8 -10 -17 -8 -9 2 -16 7 -14 12 3 10 -45 36 -66 36 -10 0 -14 7 -10 20
7 28 -9 25 -38 -6 -14 -15 -25 -22 -25 -16 0 6 -10 14 -22 18 -20 6 -19 8 15
26 40 20 55 21 156 12 48 -4 62 -3 56 6 -5 8 -23 11 -51 7 -45 -5 -58 1 -46
20 9 14 95 43 127 43 14 0 25 5 25 11 0 8 6 7 17 -2 15 -13 15 -14 0 -17z m93
-28 c0 -8 -6 -14 -14 -14 -8 0 -16 -4 -18 -9 -1 -4 -19 -2 -38 6 l-35 13 33
-5 c28 -4 35 -1 39 14 6 22 33 17 33 -5z m1010 16 c0 -5 -2 -10 -4 -10 -3 0
-8 5 -11 10 -3 6 -1 10 4 10 6 0 11 -4 11 -10z m-1386 -27 c4 -9 1 -13 -6 -10
-19 7 -48 -22 -41 -40 5 -13 1 -15 -23 -9 -37 10 -54 24 -54 47 0 14 9 19 43
21 23 2 50 4 59 5 9 1 19 -5 22 -14z m106 7 c0 -5 -7 -10 -15 -10 -8 0 -15 5
-15 10 0 6 7 10 15 10 8 0 15 -4 15 -10z m2910 -20 c8 -5 11 -10 5 -10 -5 0
-17 5 -25 10 -8 5 -10 10 -5 10 6 0 17 -5 25 -10z m-2645 -60 c3 -5 -1 -10 -9
-10 -8 0 -18 5 -21 10 -3 6 1 10 9 10 8 0 18 -4 21 -10z m-385 -25 c0 -8 -4
-15 -10 -15 -5 0 -10 7 -10 15 0 8 5 15 10 15 6 0 10 -7 10 -15z m3067 -5 c2
-19 -8 -26 -20 -14 -7 7 2 34 12 34 4 0 7 -9 8 -20z m-2930 -40 c-1 -11 -4
-20 -8 -20 -4 0 -9 9 -12 20 -3 13 0 20 8 20 8 0 13 -9 12 -20z m128 0 c3 -5
5 -10 3 -11 -55 -9 -88 -9 -88 -1 0 9 16 14 67 21 6 0 15 -3 18 -9z m2745 -10
c0 -5 -2 -10 -4 -10 -3 0 -8 5 -11 10 -3 6 -1 10 4 10 6 0 11 -4 11 -10z
m-2930 -20 c0 -5 -4 -10 -10 -10 -5 0 -10 5 -10 10 0 6 5 10 10 10 6 0 10 -4
10 -10z m221 -4 c19 -13 19 -14 -3 -19 -12 -4 -28 -1 -35 5 -10 8 -13 7 -13
-5 0 -9 6 -20 13 -24 6 -4 18 -16 25 -25 12 -15 9 -16 -30 -13 -24 2 -53 6
-65 10 -26 8 -31 25 -8 25 8 0 15 5 15 10 0 6 -9 10 -20 10 -11 0 -20 5 -20
10 0 6 10 10 23 10 12 0 27 4 34 8 21 13 64 12 84 -2z m-360 -13 c13 -16 12
-17 -3 -4 -10 7 -18 15 -18 17 0 8 8 3 21 -13z m1249 -39 c0 -2 -7 -4 -15 -4
-8 0 -15 4 -15 10 0 5 7 7 15 4 8 -4 15 -8 15 -10z m132 -7 c4 -7 6 -17 4 -24
-3 -6 2 -14 10 -17 21 -8 17 -36 -5 -36 -14 0 -21 10 -25 35 -7 33 -28 47 -41
25 -3 -5 -13 -6 -23 -3 -13 4 -13 2 3 -10 11 -9 26 -17 33 -17 6 0 12 -5 12
-11 0 -7 -12 -8 -32 -4 -18 4 -33 8 -33 9 0 0 -6 11 -13 24 -20 36 -1 51 56
46 25 -3 50 -10 54 -17z m-1177 3 c3 -5 1 -10 -4 -10 -6 0 -11 5 -11 10 0 6 2
10 4 10 3 0 8 -4 11 -10z m195 0 c0 -5 -2 -10 -4 -10 -3 0 -8 5 -11 10 -3 6
-1 10 4 10 6 0 11 -4 11 -10z m2590 -5 c0 -2 -6 -5 -13 -8 -8 -3 -14 1 -14 8
0 7 6 11 14 8 7 -3 13 -6 13 -8z m-45 -15 c3 -5 2 -10 -4 -10 -5 0 -13 5 -16
10 -3 6 -2 10 4 10 5 0 13 -4 16 -10z m-2650 -30 c2 -4 -7 -5 -20 -2 -14 2
-25 8 -25 12 0 10 38 1 45 -10z m-215 -10 c0 -5 -4 -10 -9 -10 -6 0 -13 5 -16
10 -3 6 1 10 9 10 9 0 16 -4 16 -10z m1206 -38 c-4 -3 -14 2 -24 12 -16 18
-16 18 6 6 13 -6 21 -14 18 -18z m-756 -3 c0 -4 -7 -6 -15 -3 -8 4 -15 10 -15
15 0 4 7 6 15 3 8 -4 15 -10 15 -15z m-235 1 c3 -6 -1 -7 -9 -4 -18 7 -21 14
-7 14 6 0 13 -4 16 -10z m1109 -6 c9 -23 2 -28 -29 -20 -21 5 -23 9 -13 21 17
19 34 19 42 -1z m-837 0 c-3 -3 -12 -4 -19 -1 -8 3 -5 6 6 6 11 1 17 -2 13 -5z
m53 -18 c0 -10 98 -46 125 -46 16 0 0 22 -26 35 -35 19 -35 20 6 29 22 5 26 4
15 -3 -13 -9 -13 -12 3 -28 12 -12 17 -13 17 -4 0 10 6 9 25 -3 14 -9 31 -16
38 -15 30 4 57 -2 57 -12 0 -8 -19 -10 -65 -6 -38 4 -65 2 -65 -3 0 -6 -19 -7
-45 -3 -38 5 -45 3 -45 -11 0 -26 -29 -19 -40 10 -6 14 -8 29 -5 34 3 5 1 11
-5 15 -5 3 -10 13 -10 21 0 8 5 12 10 9 6 -3 10 -12 10 -19z m814 8 c5 -14 4
-15 -9 -4 -17 14 -19 20 -6 20 5 0 12 -7 15 -16z m-146 -12 c6 -18 -15 -14
-22 4 -4 10 -1 14 6 12 6 -2 14 -10 16 -16z m-1278 -2 c0 -5 -4 -10 -9 -10 -6
0 -13 5 -16 10 -3 6 1 10 9 10 9 0 16 -4 16 -10z m25 0 c3 -5 1 -10 -4 -10 -6
0 -11 5 -11 10 0 6 2 10 4 10 3 0 8 -4 11 -10z m545 -5 c11 -13 8 -15 -19 -15
-30 0 -39 9 -24 23 11 11 30 8 43 -8z m808 -11 c13 -9 22 -23 20 -32 -1 -10 1
-23 6 -30 12 -19 -1 -27 -19 -12 -11 9 -19 10 -26 3 -8 -8 -5 -13 10 -18 12
-3 21 -11 21 -18 0 -8 -3 -8 -12 1 -7 7 -20 12 -30 12 -38 0 -43 89 -5 91 7 0
3 4 -8 9 -20 9 -20 9 0 9 11 1 31 -6 43 -15z m-1100 -24 c-2 -16 0 -31 6 -33
6 -3 7 -8 3 -13 -5 -5 -17 2 -27 16 -24 30 -25 40 -5 40 8 0 15 5 15 10 0 6 3
10 6 10 4 0 4 -13 2 -30z m85 0 c-6 -23 -33 -27 -33 -6 0 13 13 23 32 25 3 1
4 -8 1 -19z m-43 -5 c0 -8 -7 -15 -15 -15 -9 0 -12 6 -9 15 4 8 10 15 15 15 5
0 9 -7 9 -15z m-290 -15 c0 -5 -4 -10 -10 -10 -5 0 -10 5 -10 10 0 6 5 10 10
10 6 0 10 -4 10 -10z m945 0 c3 -5 -3 -10 -15 -10 -12 0 -18 5 -15 10 3 6 10
10 15 10 5 0 12 -4 15 -10z m-728 -22 c-3 -8 -6 -5 -6 6 -1 11 2 17 5 13 3 -3
4 -12 1 -19z m258 12 c3 -5 1 -10 -4 -10 -6 0 -11 5 -11 10 0 6 2 10 4 10 3 0
8 -4 11 -10z m330 0 c3 -5 -1 -10 -9 -10 -9 0 -16 5 -16 10 0 6 4 10 9 10 6 0
13 -4 16 -10z m445 0 c0 -5 -2 -10 -4 -10 -3 0 -8 5 -11 10 -3 6 -1 10 4 10 6
0 11 -4 11 -10z m-661 -14 c9 -11 9 -15 -1 -19 -18 -6 -50 12 -43 24 9 13 31
11 44 -5z m267 3 c3 -6 1 -15 -6 -19 -8 -5 -2 -10 19 -15 37 -8 49 -23 25 -32
-10 -4 -20 0 -25 10 -5 9 -17 13 -28 10 -10 -3 -22 0 -25 6 -4 6 -2 11 3 11 6
0 11 9 11 20 0 22 15 27 26 9z m278 1 c18 0 18 -1 3 -18 -10 -10 -17 -25 -18
-33 0 -10 -2 -10 -6 -1 -9 23 -29 12 -28 -15 0 -22 -4 -28 -20 -26 -11 1 -42
-5 -69 -13 -27 -7 -51 -14 -53 -14 -2 0 -3 11 -3 25 0 14 -4 25 -10 25 -5 0
-10 5 -10 11 0 7 9 5 24 -5 31 -19 124 -19 97 0 -9 7 -28 10 -42 7 -15 -3 -30
0 -33 6 -4 6 -2 11 4 11 6 0 8 5 5 10 -4 6 5 10 19 10 14 0 26 5 26 12 0 7 6
4 13 -5 8 -11 20 -15 35 -11 30 9 28 22 -3 16 -16 -3 -25 0 -25 8 0 9 11 11
38 6 20 -3 46 -6 56 -6z m-994 -20 c-14 -4 -29 -4 -35 -1 -5 3 1 8 15 11 14 4
29 4 35 1 5 -3 -1 -8 -15 -11z m528 -2 c-3 -7 -11 -13 -18 -13 -7 0 -15 6 -17
13 -3 7 4 12 17 12 13 0 20 -5 18 -12z m-148 -12 c0 -11 -19 -15 -25 -6 -3 5
1 10 9 10 9 0 16 -2 16 -4z m-283 -17 c7 -7 13 -7 17 0 10 16 36 1 36 -20 0
-18 -4 -18 -50 -2 -8 3 -27 5 -42 4 -31 -3 -38 15 -10 22 30 8 38 7 49 -4z
m523 -5 c0 -10 6 -13 19 -9 10 3 24 -1 31 -10 9 -11 16 -12 26 -4 14 11 84 -7
84 -23 0 -11 -58 -10 -65 2 -4 6 -15 6 -31 0 -38 -15 -67 -13 -61 4 8 20 -13
36 -46 36 -16 0 -26 4 -22 10 10 17 65 12 65 -6z m524 2 c26 -2 53 -10 60 -16
8 -10 6 -11 -13 -7 -17 4 -24 1 -28 -14 -6 -23 -29 -25 -37 -3 -3 9 -13 14
-21 11 -9 -4 -12 -1 -8 9 5 14 -28 20 -81 14 -12 -1 -16 3 -11 10 5 8 22 10
49 6 22 -3 63 -8 90 -10z m-694 -11 c19 -17 55 -22 86 -11 15 4 23 2 27 -8 7
-17 -8 -32 -17 -17 -7 10 -106 8 -124 -2 -6 -4 -13 -3 -17 3 -8 13 -45 13 -45
0 0 -5 -4 -10 -10 -10 -25 0 -6 23 33 40 52 23 47 23 67 5z m803 -4 c3 -11 -1
-22 -8 -25 -15 -5 -25 12 -17 32 6 18 19 15 25 -7z m1147 -14 c0 -5 -4 -5 -10
-2 -5 3 -10 14 -10 23 0 15 2 15 10 2 5 -8 10 -19 10 -23z m194 8 c3 -8 1 -15
-4 -15 -6 0 -10 7 -10 15 0 8 2 15 4 15 2 0 6 -7 10 -15z m-1569 -5 c3 -5 1
-10 -4 -10 -6 0 -11 5 -11 10 0 6 2 10 4 10 3 0 8 -4 11 -10z m-1002 -7 c-7
-2 -21 -2 -30 0 -10 3 -4 5 12 5 17 0 24 -2 18 -5z m77 -28 c0 -8 -7 -15 -15
-15 -9 0 -12 6 -9 15 4 8 10 15 15 15 5 0 9 -7 9 -15z m2195 -5 c3 -5 1 -10
-4 -10 -6 0 -11 5 -11 10 0 6 2 10 4 10 3 0 8 -4 11 -10z m-2335 -20 c0 -5 -4
-10 -10 -10 -5 0 -10 5 -10 10 0 6 5 10 10 10 6 0 10 -4 10 -10z m961 -11
c-18 -11 -40 -18 -47 -15 -8 3 -14 -1 -14 -9 0 -16 -16 -20 -24 -7 -3 5 -3 17
0 28 4 16 15 19 62 21 l57 3 -34 -21z m-404 -12 c-28 -9 -28 -10 -10 -30 18
-21 18 -21 -7 -4 -13 9 -32 17 -42 17 -9 0 -20 5 -24 11 -4 7 0 9 13 5 12 -4
25 -1 32 7 7 9 22 12 39 9 l27 -5 -28 -10z m523 13 c0 -4 -13 -10 -29 -12 -20
-3 -27 0 -24 8 5 13 53 16 53 4z m1554 -7 c4 -10 4 -14 0 -10 -4 4 -13 2 -20
-4 -11 -9 -13 2 -5 29 3 9 20 -1 25 -15z m-2264 -3 c0 -5 -4 -10 -10 -10 -5 0
-10 5 -10 10 0 6 5 10 10 10 6 0 10 -4 10 -10z m935 0 c3 -5 2 -10 -4 -10 -5
0 -13 5 -16 10 -3 6 -2 10 4 10 5 0 13 -4 16 -10z m-1175 -9 c0 -12 -66 -27
-90 -20 -16 5 -19 7 -7 8 9 1 17 5 17 10 0 4 18 8 40 8 22 0 40 -3 40 -6z
m1105 -1 c3 -5 1 -10 -4 -10 -6 0 -11 5 -11 10 0 6 2 10 4 10 3 0 8 -4 11 -10z
m-785 -14 c0 -11 -19 -15 -25 -6 -3 5 1 10 9 10 9 0 16 -2 16 -4z m284 -11
c-6 -16 -34 -21 -34 -7 0 13 11 22 26 22 8 0 11 -6 8 -15z m594 6 c10 -6 8
-10 -10 -16 -12 -4 -26 -7 -30 -6 -5 1 -8 -4 -8 -10 0 -5 -5 -7 -12 -3 -8 5
-4 13 11 26 26 20 31 21 49 9z m1322 -12 c0 -5 -4 -9 -10 -9 -5 0 -10 7 -10
16 0 8 5 12 10 9 6 -3 10 -10 10 -16z m-1880 -19 c0 -5 -7 -7 -15 -4 -8 4 -15
8 -15 10 0 2 7 4 15 4 8 0 15 -4 15 -10z m1925 0 c3 -5 -1 -10 -10 -10 -9 0
-13 5 -10 10 3 6 8 10 10 10 2 0 7 -4 10 -10z m-2095 -10 c0 -5 -4 -10 -10
-10 -5 0 -10 5 -10 10 0 6 5 10 10 10 6 0 10 -4 10 -10z m500 0 c0 -5 -2 -10
-4 -10 -3 0 -8 5 -11 10 -3 6 -1 10 4 10 6 0 11 -4 11 -10z m-930 -20 c0 -5
-4 -10 -10 -10 -5 0 -10 5 -10 10 0 6 5 10 10 10 6 0 10 -4 10 -10z m1187 4
c-3 -3 -12 -4 -19 -1 -8 3 -5 6 6 6 11 1 17 -2 13 -5z m-437 -14 c15 -10 14
-11 -30 -15 -35 -4 -50 8 -20 16 35 10 33 10 50 -1z m385 0 c-3 -5 -10 -10
-16 -10 -5 0 -9 5 -9 10 0 6 7 10 16 10 8 0 12 -4 9 -10z m-825 -10 c0 -5 -4
-10 -10 -10 -5 0 -10 5 -10 10 0 6 5 10 10 10 6 0 10 -4 10 -10z m125 0 c3 -5
-3 -10 -15 -10 -12 0 -18 5 -15 10 3 6 10 10 15 10 5 0 12 -4 15 -10z m475 0
c0 -5 -4 -10 -10 -10 -5 0 -10 5 -10 10 0 6 5 10 10 10 6 0 10 -4 10 -10z
m-520 -10 c0 -5 -10 -10 -22 -9 -22 0 -22 1 -3 9 11 5 21 9 23 9 1 1 2 -3 2
-9z m120 -10 c0 -5 -4 -10 -10 -10 -5 0 -10 5 -10 10 0 6 5 10 10 10 6 0 10
-4 10 -10z m600 -14 c0 -3 -4 -8 -10 -11 -5 -3 -10 -1 -10 4 0 6 5 11 10 11 6
0 10 -2 10 -4z m-585 -46 c4 -6 -2 -9 -14 -7 -29 4 -39 17 -13 17 11 0 24 -5
27 -10z m-238 -46 c-3 -3 -12 -4 -19 -1 -8 3 -5 6 6 6 11 1 17 -2 13 -5z m563
-9 c0 -2 -14 -3 -31 -3 -17 1 -25 4 -18 8 10 7 49 2 49 -5z m308 -21 c-10 -10
-28 6 -28 24 0 15 1 15 17 -1 9 -9 14 -19 11 -23z m-448 17 c0 -6 -4 -13 -10
-16 -5 -3 -10 1 -10 9 0 9 5 16 10 16 6 0 10 -4 10 -9z m60 -81 c0 -5 -2 -10
-4 -10 -3 0 -8 5 -11 10 -3 6 -1 10 4 10 6 0 11 -4 11 -10z m230 -30 c-19 -13
-30 -13 -30 0 0 6 10 10 23 10 18 0 19 -2 7 -10z m135 -25 c0 -5 -8 -11 -17
-12 -10 -2 -18 3 -18 10 0 8 8 13 18 12 9 0 17 -5 17 -10z m-450 -5 c3 -5 1
-10 -4 -10 -6 0 -11 5 -11 10 0 6 2 10 4 10 3 0 8 -4 11 -10z m70 -18 c-6 -7
-45 9 -45 18 0 4 11 3 24 -3 14 -7 23 -13 21 -15z"/>
<path d="M497 3563 c-10 -9 -9 -23 1 -23 5 0 9 7 9 15 0 17 -1 18 -10 8z"/>
<path d="M3517 1563 c-12 -12 5 -23 34 -23 16 0 29 5 29 11 0 6 -6 9 -12 6 -7
-2 -20 -1 -29 4 -9 5 -19 6 -22 2z"/>
<path d="M3455 1350 c3 -5 12 -7 20 -3 21 7 19 13 -6 13 -11 0 -18 -4 -14 -10z"/>
<path d="M3437 1319 c-17 -10 -23 -29 -9 -29 5 0 16 6 27 13 22 17 7 29 -18
16z"/>
<path d="M3425 1270 c4 -6 11 -8 16 -5 14 9 11 15 -7 15 -8 0 -12 -5 -9 -10z"/>
<path d="M3384 1249 c0 -11 5 -18 10 -16 16 5 18 24 4 30 -9 3 -14 -3 -14 -14z"/>
<path d="M3310 1209 c0 -5 -4 -8 -8 -5 -4 2 -8 -4 -8 -14 0 -10 9 -23 19 -30
11 -6 16 -7 13 -2 -3 6 -2 22 4 36 7 21 6 26 -5 26 -8 0 -15 -5 -15 -11z"/>
<path d="M3360 1197 c0 -10 8 -17 18 -17 9 0 13 4 7 8 -5 4 -13 11 -17 16 -5
5 -8 2 -8 -7z"/>
<path d="M3445 1140 c3 -5 8 -10 11 -10 2 0 4 5 4 10 0 6 -5 10 -11 10 -5 0
-7 -4 -4 -10z"/>
<path d="M3303 1118 c2 -7 10 -12 17 -10 8 2 10 -3 7 -13 -4 -9 -1 -15 8 -15
18 0 19 10 1 33 -15 20 -40 23 -33 5z"/>
<path d="M3360 1077 c0 -24 32 -38 53 -22 15 11 16 14 2 25 -9 7 -19 10 -22 6
-4 -4 -1 -11 7 -16 8 -6 11 -10 6 -10 -5 0 -18 7 -28 17 -16 15 -18 15 -18 0z"/>
<path d="M3280 1061 c0 -6 10 -17 22 -26 26 -17 37 -3 18 20 -14 17 -40 20
-40 6z"/>
<path d="M3350 1031 c0 -5 7 -11 14 -14 10 -4 13 -1 9 9 -6 15 -23 19 -23 5z"/>
<path d="M3304 1007 c31 -27 75 -35 54 -10 -5 7 -14 10 -19 7 -5 -2 -21 3 -36
12 l-28 16 29 -25z"/>
<path d="M3310 959 c0 -5 5 -7 10 -4 6 3 10 8 10 11 0 2 -4 4 -10 4 -5 0 -10
-5 -10 -11z"/>
<path d="M3246 951 c-4 -7 -5 -15 -2 -18 9 -9 19 4 14 18 -4 11 -6 11 -12 0z"/>
<path d="M3280 939 c0 -5 6 -9 14 -9 8 0 16 -6 19 -12 3 -9 8 -10 16 -3 8 8 2
14 -19 22 -17 6 -30 7 -30 2z"/>
<path d="M3272 899 c-13 -5 -20 -14 -16 -20 5 -8 9 -8 14 1 4 6 10 11 14 11
23 -3 36 0 31 9 -7 12 -12 12 -43 -1z"/>
<path d="M3258 847 c9 -11 18 -14 20 -8 3 8 10 7 25 -1 22 -11 22 -10 4 9 -10
12 -29 20 -42 19 -22 -1 -23 -2 -7 -19z"/>
<path d="M3195 840 c3 -5 14 -10 23 -10 15 0 15 2 2 10 -20 13 -33 13 -25 0z"/>
<path d="M2980 560 c0 -5 5 -10 10 -10 6 0 10 5 10 10 0 6 -4 10 -10 10 -5 0
-10 -4 -10 -10z"/>
<path d="M2937 484 c5 -14 3 -16 -11 -11 -14 5 -17 3 -12 -8 6 -18 2 -19 -25
-5 -13 7 -19 7 -19 1 0 -21 48 -23 74 -4 28 20 29 36 3 41 -13 3 -15 -1 -10
-14z"/>
<path d="M2966 461 c-3 -5 3 -11 13 -14 14 -3 18 -1 14 9 -6 16 -19 18 -27 5z"/>
<path d="M2896 421 c-4 -6 3 -15 14 -21 23 -12 27 2 6 19 -9 8 -16 8 -20 2z"/>
<path d="M1440 730 c0 -5 5 -10 11 -10 5 0 7 5 4 10 -3 6 -8 10 -11 10 -2 0
-4 -4 -4 -10z"/>
<path d="M1390 600 c0 -6 7 -10 15 -10 8 0 15 2 15 4 0 2 -7 6 -15 10 -8 3
-15 1 -15 -4z"/>
<path d="M790 3860 c0 -6 5 -20 10 -30 7 -13 7 -21 -1 -25 -6 -5 -4 -12 8 -22
10 -8 13 -12 6 -9 -6 4 -14 2 -17 -3 -4 -5 1 -11 11 -13 15 -3 15 -4 -2 -21
-17 -18 -17 -18 1 -15 10 2 26 10 35 19 9 9 22 18 30 21 7 2 9 10 5 16 -11 19
-29 14 -22 -5 7 -17 6 -17 -11 0 -11 11 -18 32 -18 55 0 27 -5 38 -17 40 -10
2 -18 -2 -18 -8z"/>
<path d="M850 3823 c1 -9 50 -47 54 -41 2 1 -10 13 -25 26 -16 13 -29 20 -29
15z"/>
<path d="M870 3701 c0 -6 4 -13 10 -16 6 -3 7 1 4 9 -7 18 -14 21 -14 7z"/>
<path d="M808 3658 c5 -5 16 -8 23 -6 8 3 3 7 -10 11 -17 4 -21 3 -13 -5z"/>
<path d="M746 3577 c3 -8 11 -14 19 -14 8 0 15 6 15 14 0 7 -9 13 -20 13 -12
0 -17 -5 -14 -13z"/>
<path d="M750 3540 c0 -13 18 -22 24 -11 3 5 -1 11 -9 15 -8 3 -15 1 -15 -4z"/>
<path d="M575 3480 c3 -5 8 -10 11 -10 2 0 4 5 4 10 0 6 -5 10 -11 10 -5 0 -7
-4 -4 -10z"/>
<path d="M540 3446 c0 -2 8 -10 18 -17 15 -13 16 -12 3 4 -13 16 -21 21 -21
13z"/>
<path d="M506 3431 c-3 -5 1 -11 9 -14 9 -4 12 -1 8 9 -6 16 -10 17 -17 5z"/>
<path d="M696 3421 c-3 -5 1 -11 9 -15 9 -3 15 0 15 9 0 16 -16 20 -24 6z"/>
<path d="M440 3406 c0 -2 11 -6 25 -8 13 -3 22 -1 19 3 -5 9 -44 13 -44 5z"/>
<path d="M420 3373 c1 -12 50 -45 50 -33 0 5 -4 10 -10 10 -5 0 -10 7 -10 15
0 8 -7 15 -15 15 -8 0 -15 -3 -15 -7z"/>
<path d="M711 3310 c0 -33 1 -34 10 -11 6 16 6 28 -1 35 -7 7 -10 -1 -9 -24z"/>
<path d="M407 3302 c3 -14 11 -18 24 -15 10 3 19 10 19 15 0 5 -5 6 -10 3 -6
-4 -17 -2 -25 5 -11 9 -12 7 -8 -8z"/>
<path d="M495 3280 c3 -5 11 -10 16 -10 6 0 7 5 4 10 -3 6 -11 10 -16 10 -6 0
-7 -4 -4 -10z"/>
<path d="M720 3260 c0 -5 5 -10 11 -10 5 0 7 5 4 10 -3 6 -8 10 -11 10 -2 0
-4 -4 -4 -10z"/>
<path d="M390 3250 c0 -5 7 -10 15 -10 8 0 15 5 15 10 0 6 -7 10 -15 10 -8 0
-15 -4 -15 -10z"/>
<path d="M720 3230 c0 -5 5 -10 11 -10 5 0 7 5 4 10 -3 6 -8 10 -11 10 -2 0
-4 -4 -4 -10z"/>
<path d="M888 3156 c-10 -7 -18 -18 -18 -25 0 -6 -4 -11 -9 -11 -5 0 -31 -23
-58 -51 -26 -28 -72 -75 -100 -104 -29 -29 -53 -60 -53 -69 0 -9 -5 -15 -11
-13 -7 1 -14 -11 -16 -28 -4 -32 38 -98 50 -78 4 6 -2 20 -12 32 -32 37 -4
104 36 83 15 -8 23 -3 43 25 14 19 53 65 88 101 64 68 100 128 85 143 -4 4
-16 2 -25 -5z"/>
<path d="M276 3135 c4 -10 0 -15 -15 -15 -16 0 -41 -25 -41 -43 0 -13 34 0 37
14 3 10 16 22 29 26 24 8 24 8 4 20 -16 11 -18 10 -14 -2z"/>
<path d="M340 3110 c0 -5 5 -10 10 -10 6 0 10 5 10 10 0 6 -4 10 -10 10 -5 0
-10 -4 -10 -10z"/>
<path d="M320 3079 c0 -5 5 -7 10 -4 6 3 10 8 10 11 0 2 -4 4 -10 4 -5 0 -10
-5 -10 -11z"/>
<path d="M270 3066 c0 -8 -6 -17 -12 -20 -7 -4 -2 -4 11 -2 14 3 31 0 38 -6 7
-6 13 -7 13 -2 0 5 -12 17 -25 27 -20 15 -25 15 -25 3z"/>
<path d="M270 3010 c0 -5 5 -10 11 -10 5 0 7 5 4 10 -3 6 -8 10 -11 10 -2 0
-4 -4 -4 -10z"/>
<path d="M967 2983 c4 -10 14 -28 24 -41 10 -13 27 -42 38 -65 11 -23 34 -57
50 -74 30 -33 30 -33 7 -33 -20 0 -23 -5 -21 -27 3 -40 21 -79 40 -87 9 -3 14
-10 11 -15 -3 -5 2 -8 12 -7 11 0 17 -6 17 -18 0 -13 11 -23 30 -29 32 -11 55
-35 49 -52 -9 -23 42 -57 74 -48 11 2 23 0 27 -7 5 -7 12 -2 21 15 26 50 8 81
-110 200 -61 60 -129 135 -151 166 -83 117 -100 138 -112 139 -8 0 -10 -7 -6
-17z"/>
<path d="M118 2885 c5 -27 22 -35 22 -10 0 9 6 12 15 9 11 -5 13 -2 9 10 -3 9
-16 16 -29 16 -18 0 -21 -4 -17 -25z"/>
<path d="M200 2881 c0 -5 5 -13 10 -16 6 -3 10 -2 10 4 0 5 -4 13 -10 16 -5 3
-10 2 -10 -4z"/>
<path d="M148 2842 c-22 -14 -25 -21 -16 -30 18 -18 31 -15 23 6 -5 14 -4 15
6 5 7 -7 19 -13 27 -13 10 0 10 3 -2 16 -9 8 -14 20 -11 25 9 13 4 11 -27 -9z"/>
<path d="M1511 2844 c0 -11 3 -14 6 -6 3 7 2 16 -1 19 -3 4 -6 -2 -5 -13z"/>
<path d="M230 2796 c0 -2 7 -7 16 -10 8 -3 12 -2 9 4 -6 10 -25 14 -25 6z"/>
<path d="M123 2776 c0 -6 6 -17 14 -24 10 -10 13 -9 13 7 0 10 -6 21 -13 24
-8 3 -14 0 -14 -7z"/>
<path d="M155 2720 c-3 -5 -1 -10 4 -10 6 0 11 5 11 10 0 6 -2 10 -4 10 -3 0
-8 -4 -11 -10z"/>
<path d="M170 2690 c0 -5 5 -10 11 -10 5 0 7 5 4 10 -3 6 -8 10 -11 10 -2 0
-4 -4 -4 -10z"/>
<path d="M2310 2632 c0 -4 10 -9 22 -9 18 -2 20 0 8 7 -18 12 -30 13 -30 2z"/>
<path d="M2251 2621 c-17 -11 0 -23 42 -27 l30 -4 -26 20 c-29 23 -28 23 -46
11z m34 -11 c3 -5 2 -10 -4 -10 -5 0 -13 5 -16 10 -3 6 -2 10 4 10 5 0 13 -4
16 -10z"/>
<path d="M720 2611 c0 -6 4 -13 10 -16 6 -3 7 1 4 9 -7 18 -14 21 -14 7z"/>
<path d="M80 2560 c0 -6 7 -10 15 -10 8 0 15 2 15 4 0 2 -7 6 -15 10 -8 3 -15
1 -15 -4z"/>
<path d="M1185 2560 c3 -5 11 -10 16 -10 6 0 7 5 4 10 -3 6 -11 10 -16 10 -6
0 -7 -4 -4 -10z"/>
<path d="M225 2500 c-3 -5 -1 -10 4 -10 6 0 11 5 11 10 0 6 -2 10 -4 10 -3 0
-8 -4 -11 -10z"/>
<path d="M100 2464 c0 -8 5 -12 10 -9 6 3 10 10 10 16 0 5 -4 9 -10 9 -5 0
-10 -7 -10 -16z"/>
<path d="M1580 2476 c0 -2 8 -10 18 -17 15 -13 16 -12 3 4 -13 16 -21 21 -21
13z"/>
<path d="M725 2450 c3 -5 8 -10 11 -10 2 0 4 5 4 10 0 6 -5 10 -11 10 -5 0 -7
-4 -4 -10z"/>
<path d="M2640 2449 c0 -5 5 -7 10 -4 6 3 10 8 10 11 0 2 -4 4 -10 4 -5 0 -10
-5 -10 -11z"/>
<path d="M1535 2429 c-9 -14 -2 -20 14 -10 8 6 9 11 3 15 -6 3 -14 1 -17 -5z"/>
<path d="M2712 2396 c-8 -19 -7 -28 3 -43 13 -15 16 -16 24 -3 7 10 6 19 -3
30 -7 8 -11 21 -9 28 8 22 -3 13 -15 -12z"/>
<path d="M1281 2401 c-10 -6 -9 -10 3 -14 8 -3 18 -2 21 3 8 13 -9 20 -24 11z"/>
<path d="M1560 2400 c0 -6 7 -10 15 -10 8 0 15 2 15 4 0 2 -7 6 -15 10 -8 3
-15 1 -15 -4z"/>
<path d="M7 2394 c-13 -13 -7 -33 18 -60 14 -15 25 -22 25 -15 0 6 12 11 27
11 31 0 24 12 -10 16 -12 1 -25 3 -29 3 -4 1 -7 11 -5 22 2 22 -13 35 -26 23z"/>
<path d="M94 2379 c-6 -10 -7 -10 24 -13 12 -2 22 1 22 5 0 11 -39 18 -46 8z"/>
<path d="M1190 2373 c14 -9 40 -30 58 -46 22 -22 32 -26 32 -15 0 20 -37 61
-48 54 -6 -3 -12 1 -16 9 -3 8 -16 15 -28 15 -22 0 -22 0 2 -17z"/>
<path d="M50 2370 c0 -5 5 -10 10 -10 6 0 10 5 10 10 0 6 -4 10 -10 10 -5 0
-10 -4 -10 -10z"/>
<path d="M0 2310 c0 -5 7 -10 16 -10 8 0 12 5 9 10 -3 6 -10 10 -16 10 -5 0
-9 -4 -9 -10z"/>
<path d="M0 2275 c0 -8 2 -15 4 -15 2 0 6 7 10 15 3 8 1 15 -4 15 -6 0 -10 -7
-10 -15z"/>
<path d="M1330 2286 c0 -2 22 -20 49 -39 31 -22 50 -45 53 -61 5 -23 3 -26
-16 -21 -18 5 -17 3 4 -9 41 -25 50 -21 38 17 -6 17 -12 45 -13 61 -2 26 -7
31 -51 42 -54 14 -64 16 -64 10z"/>
<path d="M30 2258 c-20 -7 -22 -11 -10 -18 21 -13 33 -12 24 2 -5 8 -2 9 9 5
10 -3 17 -2 17 3 0 15 -14 18 -40 8z"/>
<path d="M35 2191 c-11 -10 7 -18 30 -13 37 7 42 23 5 20 -17 -1 -33 -4 -35
-7z"/>
<path d="M1509 2188 c-6 -12 -5 -48 2 -48 14 0 20 18 8 26 -8 4 -7 9 2 15 10
6 11 9 2 9 -7 0 -14 -1 -14 -2z"/>
<path d="M7 2155 c-8 -19 13 -31 23 -14 9 14 4 29 -10 29 -4 0 -10 -7 -13 -15z"/>
<path d="M1730 2160 c0 -5 5 -10 10 -10 6 0 10 5 10 10 0 6 -4 10 -10 10 -5 0
-10 -4 -10 -10z"/>
<path d="M1770 2140 c0 -5 3 -9 8 -9 19 3 29 -2 30 -16 1 -8 3 -21 4 -29 1 -8
9 -11 20 -8 12 3 18 -1 18 -12 0 -10 5 -14 10 -11 6 4 7 11 4 17 -4 6 3 5 16
-2 12 -7 25 -20 27 -31 3 -10 9 -17 13 -14 5 3 21 -5 37 -18 15 -13 41 -27 57
-31 26 -6 28 -5 16 9 -7 8 -21 13 -30 10 -18 -6 -37 22 -24 34 4 3 9 0 11 -6
3 -7 9 -13 15 -13 6 0 8 7 5 15 -4 8 -2 17 3 20 15 9 12 25 -5 25 -8 0 -15 -4
-15 -10 0 -5 -7 -10 -15 -10 -8 0 -12 6 -9 13 3 8 -7 19 -23 26 -15 7 -36 18
-47 23 -19 10 -106 38 -118 38 -5 0 -8 -4 -8 -10z"/>
<path d="M764 2071 c3 -40 8 -76 12 -80 9 -8 -3 139 -11 147 -4 4 -5 -26 -1
-67z"/>
<path d="M45 2110 c-3 -5 -1 -10 4 -10 6 0 11 5 11 10 0 6 -2 10 -4 10 -3 0
-8 -4 -11 -10z"/>
<path d="M1400 2116 c0 -2 7 -7 16 -10 8 -3 12 -2 9 4 -6 10 -25 14 -25 6z"/>
<path d="M88 2093 c7 -3 16 -2 19 1 4 3 -2 6 -13 5 -11 0 -14 -3 -6 -6z"/>
<path d="M1553 2078 c2 -7 10 -12 16 -10 6 1 11 -2 11 -8 0 -5 10 -10 23 -9
12 0 16 3 9 6 -6 2 -10 9 -7 14 4 5 0 6 -8 3 -8 -3 -18 -1 -22 5 -9 15 -28 14
-22 -1z"/>
<path d="M41 2059 c11 -11 23 -18 26 -15 9 8 -17 36 -33 36 -10 0 -7 -7 7 -21z"/>
<path d="M1477 2074 c18 -8 4 -34 -19 -34 -10 0 -17 -4 -13 -10 3 -5 12 -7 20
-3 10 3 15 -2 15 -16 0 -24 12 -27 29 -7 9 11 8 17 -4 29 -8 9 -12 23 -9 31 4
11 0 16 -12 15 -11 0 -14 -3 -7 -5z"/>
<path d="M105 2060 c3 -5 8 -10 11 -10 2 0 4 5 4 10 0 6 -5 10 -11 10 -5 0 -7
-4 -4 -10z"/>
<path d="M1415 2060 c-3 -5 -2 -10 4 -10 5 0 13 5 16 10 3 6 2 10 -4 10 -5 0
-13 -4 -16 -10z"/>
<path d="M2045 2042 c-6 -4 -11 -13 -12 -19 -4 -16 23 -17 33 -2 8 14 -8 30
-21 21z"/>
<path d="M2120 2011 c0 -4 9 -16 20 -26 11 -10 17 -22 14 -26 -3 -5 -1 -9 5
-9 6 0 8 -6 5 -14 -3 -8 -1 -17 5 -21 10 -5 16 15 12 39 -1 4 3 14 10 22 9 11
7 15 -7 20 -11 3 -29 10 -41 15 -13 5 -23 5 -23 0z"/>
<path d="M1896 2001 c-3 -5 1 -11 9 -15 8 -3 15 -1 15 4 0 13 -18 22 -24 11z"/>
<path d="M2785 2000 c3 -5 11 -10 16 -10 6 0 7 5 4 10 -3 6 -11 10 -16 10 -6
0 -7 -4 -4 -10z"/>
<path d="M2866 2003 c-11 -11 -6 -23 9 -23 8 0 15 4 15 9 0 13 -16 22 -24 14z"/>
<path d="M1940 1990 c0 -5 10 -15 23 -21 22 -12 22 -12 3 10 -21 23 -26 26
-26 11z"/>
<path d="M2090 1996 c0 -2 8 -10 18 -17 15 -13 16 -12 3 4 -13 16 -21 21 -21
13z"/>
<path d="M0 1981 c0 -5 7 -12 16 -15 14 -5 15 -4 4 9 -14 17 -20 19 -20 6z"/>
<path d="M59 1968 c12 -16 10 -19 -10 -27 -22 -9 -22 -10 -3 -10 11 -1 27 5
35 12 8 6 12 11 10 9 -2 -1 -14 6 -25 15 -19 17 -20 17 -7 1z"/>
<path d="M2756 1964 c-3 -8 1 -17 9 -20 24 -10 32 0 14 18 -15 14 -18 14 -23
2z"/>
<path d="M2080 1960 c0 -5 5 -10 10 -10 6 0 10 5 10 10 0 6 -4 10 -10 10 -5 0
-10 -4 -10 -10z"/>
<path d="M2810 1940 c0 -5 5 -10 10 -10 6 0 10 5 10 10 0 6 -4 10 -10 10 -5 0
-10 -4 -10 -10z"/>
<path d="M10 1910 c0 -6 7 -10 15 -10 19 0 19 6 0 14 -8 3 -15 1 -15 -4z"/>
<path d="M2780 1911 c0 -6 5 -13 10 -16 6 -3 10 1 10 9 0 9 -4 16 -10 16 -5 0
-10 -4 -10 -9z"/>
<path d="M61 1885 c4 -30 -2 -37 -25 -31 -28 7 -44 -10 -27 -27 9 -9 11 -8 6
6 -4 10 -2 17 4 17 6 0 11 -4 11 -9 0 -10 48 -2 55 9 2 4 -2 16 -10 26 -9 10
-15 15 -14 9z"/>
<path d="M2700 1870 c0 -5 5 -10 11 -10 5 0 7 5 4 10 -3 6 -8 10 -11 10 -2 0
-4 -4 -4 -10z"/>
<path d="M2430 1862 c0 -9 -7 -11 -21 -7 -18 6 -20 4 -14 -15 5 -15 3 -20 -3
-16 -6 3 -13 2 -16 -3 -3 -5 4 -11 15 -14 29 -8 63 27 50 51 -7 11 -11 12 -11
4z"/>
<path d="M2730 1830 c0 -5 5 -10 11 -10 5 0 7 5 4 10 -3 6 -8 10 -11 10 -2 0
-4 -4 -4 -10z"/>
<path d="M2680 1810 c0 -5 7 -10 16 -10 8 0 12 5 9 10 -3 6 -10 10 -16 10 -5
0 -9 -4 -9 -10z"/>
<path d="M2369 1773 c-13 -16 -12 -17 4 -4 9 7 17 15 17 17 0 8 -8 3 -21 -13z"/>
<path d="M1385 1750 c3 -5 8 -10 11 -10 2 0 4 5 4 10 0 6 -5 10 -11 10 -5 0
-7 -4 -4 -10z"/>
<path d="M2500 1730 c0 -5 4 -10 9 -10 5 0 18 -3 28 -6 16 -5 16 -4 -1 10 -23
18 -36 20 -36 6z"/>
<path d="M898 1723 c6 -2 18 -2 25 0 6 3 1 5 -13 5 -14 0 -19 -2 -12 -5z"/>
<path d="M2580 1715 c0 -9 10 -15 26 -15 23 0 24 2 10 15 -8 8 -19 15 -25 15
-6 0 -11 -7 -11 -15z"/>
<path d="M1355 1710 c3 -5 11 -10 16 -10 6 0 7 5 4 10 -3 6 -11 10 -16 10 -6
0 -7 -4 -4 -10z"/>
<path d="M1640 1710 c0 -12 28 -25 36 -17 3 3 -4 10 -15 17 -15 7 -21 7 -21 0z"/>
<path d="M386 1703 c-1 -2 -36 -7 -77 -12 -41 -6 -112 -17 -159 -25 -46 -9
-99 -14 -117 -12 -26 4 -33 1 -33 -13 0 -16 7 -17 52 -13 29 2 61 8 70 13 9 5
32 9 52 9 19 0 37 4 40 9 7 10 80 20 207 27 52 3 99 6 106 7 7 0 10 4 7 9 -5
8 -140 9 -148 1z"/>
<path d="M1450 1700 c0 -5 5 -10 11 -10 5 0 7 5 4 10 -3 6 -8 10 -11 10 -2 0
-4 -4 -4 -10z"/>
<path d="M2431 1696 c-6 -7 -7 -16 -3 -21 4 -4 -4 -4 -17 0 -16 5 -21 4 -17
-4 10 -16 46 -14 46 3 0 8 5 16 12 18 8 3 9 6 1 11 -6 4 -16 1 -22 -7z"/>
<path d="M553 1694 c11 -11 103 -15 142 -6 34 7 25 9 -54 10 -51 0 -91 -1 -88
-4z"/>
<path d="M974 1674 c3 -9 6 -20 6 -25 0 -5 4 -9 9 -9 4 0 6 11 3 25 -2 14 -9
25 -14 25 -6 0 -7 -7 -4 -16z"/>
<path d="M1000 1670 c0 -5 5 -10 11 -10 5 0 7 5 4 10 -3 6 -8 10 -11 10 -2 0
-4 -4 -4 -10z"/>
<path d="M1185 1670 c3 -5 8 -10 11 -10 2 0 4 5 4 10 0 6 -5 10 -11 10 -5 0
-7 -4 -4 -10z"/>
<path d="M1230 1648 c0 -4 7 -8 15 -8 8 0 15 4 15 8 0 5 -7 9 -15 9 -8 0 -15
-4 -15 -9z"/>
<path d="M1017 1643 c-12 -11 -8 -23 8 -23 8 0 15 7 15 15 0 16 -12 20 -23 8z"/>
<path d="M2390 1640 c0 -6 7 -10 15 -10 8 0 15 2 15 4 0 2 -7 6 -15 10 -8 3
-15 1 -15 -4z"/>
<path d="M2375 1600 c10 -11 20 -18 23 -16 5 6 -23 36 -34 36 -4 0 1 -9 11
-20z"/>
<path d="M2315 1568 c1 -13 9 -24 18 -26 22 -4 22 11 -1 31 -18 16 -19 16 -17
-5z"/>
<path d="M115 1550 c3 -5 11 -10 16 -10 6 0 7 5 4 10 -3 6 -11 10 -16 10 -6 0
-7 -4 -4 -10z"/>
<path d="M12 1538 c-7 -7 -12 -38 -11 -72 0 -34 3 -55 6 -48 2 6 11 12 19 12
8 0 14 5 14 10 0 6 -7 10 -15 10 -8 0 -15 4 -15 9 0 12 45 19 63 10 11 -7 16
-2 19 16 3 14 1 25 -4 25 -6 0 -8 6 -5 14 4 9 -3 16 -16 20 -32 8 -42 7 -55
-6z m35 -14 c-3 -3 -12 -4 -19 -1 -8 3 -5 6 6 6 11 1 17 -2 13 -5z"/>
<path d="M2370 1526 c-6 -8 -18 -12 -26 -9 -8 3 -14 0 -14 -5 0 -16 18 -24 25
-12 3 5 16 10 28 10 16 0 18 3 8 9 -11 7 -11 9 0 14 8 3 9 6 3 6 -6 1 -17 -5
-24 -13z"/>
<path d="M2390 1496 c0 -2 7 -9 15 -16 9 -7 15 -8 15 -2 0 5 -7 12 -15 16 -8
3 -15 4 -15 2z"/>
<path d="M2288 1463 c7 -3 16 -2 19 1 4 3 -2 6 -13 5 -11 0 -14 -3 -6 -6z"/>
<path d="M2250 1445 c0 -8 4 -15 8 -15 5 0 9 7 9 15 0 8 -4 15 -9 15 -4 0 -8
-7 -8 -15z"/>
<path d="M1400 1441 c0 -10 19 -25 25 -20 1 2 -3 10 -11 17 -8 7 -14 8 -14 3z"/>
<path d="M1919 1403 c-1 -4 -1 -12 0 -17 1 -4 -3 -14 -10 -22 -11 -14 -5 -34
12 -34 5 0 9 6 9 14 0 8 6 17 13 20 9 5 9 7 -1 12 -6 3 -10 10 -7 14 3 5 1 11
-5 15 -5 3 -11 3 -11 -2z"/>
<path d="M2128 1395 c-4 -4 2 -21 13 -36 23 -33 46 -40 29 -10 -8 16 -6 22 7
30 17 10 17 10 1 11 -10 0 -18 -4 -18 -10 0 -16 -18 -11 -22 6 -2 9 -6 13 -10
9z"/>
<path d="M1538 1383 c7 -3 16 -2 19 1 4 3 -2 6 -13 5 -11 0 -14 -3 -6 -6z"/>
<path d="M1 1364 c0 -11 3 -14 6 -6 3 7 2 16 -1 19 -3 4 -6 -2 -5 -13z"/>
<path d="M2220 1370 c0 -5 5 -10 10 -10 6 0 10 5 10 10 0 6 -4 10 -10 10 -5 0
-10 -4 -10 -10z"/>
<path d="M65 1361 c-3 -5 -1 -12 5 -16 5 -3 10 1 10 9 0 18 -6 21 -15 7z"/>
<path d="M2060 1360 c0 -5 7 -10 16 -10 8 0 12 5 9 10 -3 6 -10 10 -16 10 -5
0 -9 -4 -9 -10z"/>
<path d="M1161 1353 l-23 -5 21 -14 c12 -9 26 -12 31 -9 12 7 14 36 3 34 -5
-1 -19 -4 -32 -6z"/>
<path d="M440 1346 c0 -2 9 -6 20 -9 11 -3 20 -1 20 4 0 5 -9 9 -20 9 -11 0
-20 -2 -20 -4z"/>
<path d="M338 1333 c6 -2 18 -2 25 0 6 3 1 5 -13 5 -14 0 -19 -2 -12 -5z"/>
<path d="M2127 1304 c-8 -8 1 -24 12 -24 4 0 8 7 8 15 0 16 -9 20 -20 9z"/>
<path d="M675 1290 c-3 -5 -1 -10 4 -10 6 0 11 5 11 10 0 6 -2 10 -4 10 -3 0
-8 -4 -11 -10z"/>
<path d="M21 1268 c-6 -10 -11 -20 -11 -23 0 -11 23 -4 46 14 l24 19 -24 4
c-15 3 -27 -2 -35 -14z"/>
<path d="M100 1280 c0 -5 5 -10 11 -10 5 0 7 5 4 10 -3 6 -8 10 -11 10 -2 0
-4 -4 -4 -10z"/>
<path d="M382 1278 c5 -15 28 -18 29 -3 0 6 -7 12 -17 13 -10 3 -15 -1 -12
-10z"/>
<path d="M146 1242 c-2 -4 4 -8 14 -8 10 0 16 4 14 8 -3 4 -9 8 -14 8 -5 0
-11 -4 -14 -8z"/>
<path d="M285 1240 c-3 -5 -15 -10 -25 -10 -10 0 -22 -5 -25 -10 -4 -7 3 -9
19 -6 36 6 61 22 48 30 -6 3 -13 2 -17 -4z"/>
<path d="M700 1246 c0 -9 30 -14 35 -6 4 6 -3 10 -14 10 -12 0 -21 -2 -21 -4z"/>
<path d="M177 1206 c-3 -7 0 -19 6 -25 9 -9 6 -13 -11 -17 -12 -4 -19 -11 -16
-16 3 -5 -3 -12 -15 -15 -26 -7 -17 -23 12 -21 12 0 36 -3 52 -7 35 -9 31 -2
-10 19 -26 14 -27 16 -9 16 24 0 40 26 21 34 -9 3 -8 7 2 14 11 8 10 12 -7 21
-15 8 -21 7 -25 -3z"/>
<path d="M380 1215 c0 -2 10 -9 21 -16 13 -7 19 -7 15 -1 -4 6 7 12 26 15 26
3 22 4 -14 5 -27 1 -48 0 -48 -3z"/>
<path d="M51 1197 c-12 -15 -5 -27 17 -27 11 0 12 3 3 14 -9 11 -9 15 1 19 8
3 8 6 2 6 -6 1 -17 -5 -23 -12z"/>
<path d="M846 1185 c4 -8 11 -15 16 -15 6 0 5 6 -2 15 -7 8 -14 15 -16 15 -2
0 -1 -7 2 -15z"/>
<path d="M5 1170 c-8 -13 -1 -24 14 -19 6 3 7 10 2 18 -6 10 -10 10 -16 1z"/>
<path d="M246 1163 c20 -14 38 -13 32 2 -2 5 -13 9 -26 10 -22 1 -22 0 -6 -12z"/>
<path d="M375 1170 c-3 -5 -3 -14 0 -20 3 -5 1 -10 -4 -10 -6 0 -11 5 -11 10
0 6 -4 10 -10 10 -16 0 -12 -17 6 -24 20 -8 54 11 54 29 0 17 -26 20 -35 5z"/>
<path d="M712 1159 c-14 -5 -11 -9 16 -23 17 -9 32 -12 32 -6 0 5 9 10 19 10
24 0 51 10 51 19 0 8 -95 8 -118 0z"/>
<path d="M475 1150 c11 -5 34 -9 50 -9 26 0 27 2 10 9 -11 5 -33 9 -50 9 -26
0 -27 -2 -10 -9z"/>
<path d="M600 1153 c8 -3 18 -10 21 -16 4 -5 12 -6 19 -2 16 10 -6 25 -35 24
-14 0 -16 -2 -5 -6z"/>
<path d="M911 1151 c-7 -5 -11 -13 -8 -19 9 -13 59 -2 54 12 -5 14 -28 18 -46
7z"/>
<path d="M230 1139 c0 -5 5 -7 10 -4 6 3 10 8 10 11 0 2 -4 4 -10 4 -5 0 -10
-5 -10 -11z"/>
<path d="M0 1120 c0 -11 4 -20 9 -20 17 0 19 15 5 28 -12 11 -14 9 -14 -8z"/>
<path d="M790 1120 c0 -5 6 -7 14 -4 15 6 42 -32 38 -52 -3 -14 58 -27 83 -18
10 4 21 1 27 -7 8 -11 9 -11 5 3 -3 9 -1 19 6 22 7 3 -13 3 -44 0 -56 -5 -69
2 -73 39 -2 20 -56 36 -56 17z"/>
<path d="M720 1109 c0 -5 5 -7 10 -4 6 3 10 8 10 11 0 2 -4 4 -10 4 -5 0 -10
-5 -10 -11z"/>
<path d="M620 1085 c0 -10 7 -15 18 -13 21 4 19 22 -2 26 -10 2 -16 -3 -16
-13z"/>
<path d="M695 1090 c3 -5 -2 -21 -11 -35 -15 -23 -15 -25 1 -25 11 0 15 5 11
15 -3 9 0 15 9 15 20 0 19 26 -1 34 -8 3 -12 2 -9 -4z"/>
<path d="M880 1096 c0 -2 9 -6 20 -9 11 -3 18 -1 14 4 -5 9 -34 13 -34 5z"/>
<path d="M741 1068 c13 -23 25 -23 32 1 3 15 -1 18 -18 17 -19 -1 -21 -4 -14
-18z"/>
<path d="M1010 1060 c-13 -8 -12 -10 3 -10 9 0 17 5 17 10 0 12 -1 12 -20 0z"/>
<path d="M640 1050 c0 -5 5 -10 10 -10 6 0 10 5 10 10 0 6 -4 10 -10 10 -5 0
-10 -4 -10 -10z"/>
<path d="M730 1030 c0 -5 5 -10 10 -10 6 0 10 5 10 10 0 6 -4 10 -10 10 -5 0
-10 -4 -10 -10z"/>
<path d="M830 990 c0 -6 24 -10 53 -10 29 0 58 -5 65 -12 9 -9 12 -9 12 -1 0
7 -4 15 -10 18 -17 11 -120 14 -120 5z"/>
<path d="M1150 993 c0 -13 29 -38 35 -31 3 3 -4 13 -15 23 -11 10 -20 13 -20
8z"/>
<path d="M1067 946 c-7 -17 -41 -24 -82 -16 -16 4 -41 3 -55 -1 -19 -5 -14 -7
23 -8 33 -1 47 -5 47 -15 0 -8 6 -16 12 -18 8 -3 4 -9 -10 -17 -27 -15 -30
-46 -3 -38 10 2 26 0 35 -5 12 -7 16 -5 16 8 0 10 5 14 15 10 8 -3 15 -1 15 5
0 5 -7 12 -15 15 -8 4 -15 11 -15 16 0 6 6 6 14 -1 10 -8 16 -9 21 -1 3 5 4
11 1 11 -3 1 -10 3 -16 4 -5 1 -17 3 -25 4 -28 2 -15 21 14 21 35 0 47 13 27
29 -10 9 -15 8 -19 -3z"/>
<path d="M570 940 c0 -5 10 -10 23 -10 18 0 19 2 7 10 -19 13 -30 13 -30 0z"/>
<path d="M740 915 c0 -8 7 -15 16 -15 14 0 14 3 4 15 -7 8 -14 15 -16 15 -2 0
-4 -7 -4 -15z"/>
<path d="M800 899 c0 -5 -6 -7 -12 -3 -7 4 -4 -2 6 -14 24 -28 29 -28 21 -1
-5 14 -3 19 3 15 6 -3 21 -2 34 3 21 9 19 10 -14 10 -21 1 -38 -4 -38 -10z"/>
<path d="M894 895 c4 -12 0 -14 -21 -9 -18 5 -24 4 -19 -5 9 -15 39 -14 54 1
9 9 12 9 12 0 0 -7 12 -12 27 -12 33 0 21 13 -26 28 -28 10 -32 9 -27 -3z"/>
<path d="M770 870 c0 -5 5 -10 11 -10 5 0 7 5 4 10 -3 6 -8 10 -11 10 -2 0 -4
-4 -4 -10z"/>
<path d="M1150 841 c0 -5 7 -12 16 -15 24 -9 27 -7 10 9 -17 17 -26 19 -26 6z"/>
<path d="M990 801 c0 -12 26 -19 65 -17 48 2 35 21 -17 24 -27 2 -48 -1 -48
-7z"/>
<path d="M1092 664 c4 -21 22 -23 26 -1 2 10 -3 17 -13 17 -10 0 -15 -6 -13
-16z"/>
<path d="M1225 650 c4 -6 11 -8 16 -5 14 9 11 15 -7 15 -8 0 -12 -5 -9 -10z"/>
<path d="M1175 620 c4 -6 11 -8 16 -5 14 9 11 15 -7 15 -8 0 -12 -5 -9 -10z"/>
</g>
</svg>
